<svg width="32" height="32" viewBox="0 0 32 32" fill="none" xmlns="http://www.w3.org/2000/svg">
<g id="SendFill" clip-path="url(#clip0_45_4)">
<path id="Vector" d="M25.5427 7.49727C25.6009 7.35189 25.6151 7.19263 25.5837 7.03923C25.5522 6.88583 25.4764 6.74503 25.3657 6.63431C25.255 6.52358 25.1142 6.44778 24.9608 6.41631C24.8074 6.38485 24.6481 6.39909 24.5027 6.45728L1.22836 15.7676H1.22676L0.503582 16.0556C0.366611 16.1102 0.247408 16.2016 0.159139 16.3198C0.0708704 16.4379 0.0169718 16.5781 0.00339703 16.725C-0.0101778 16.8718 0.0170996 17.0196 0.0822159 17.1519C0.147332 17.2842 0.247753 17.3959 0.372387 17.4747L1.02836 17.8907L1.02996 17.8939L9.02169 22.9787L14.1063 30.9706L14.1095 30.9738L14.5255 31.6298C14.6046 31.7539 14.7164 31.8539 14.8486 31.9186C14.9808 31.9833 15.1283 32.0102 15.2748 31.9965C15.4214 31.9828 15.5613 31.9289 15.6792 31.8407C15.7971 31.7526 15.8884 31.6336 15.943 31.497L25.5427 7.49727ZM22.61 10.5212L10.62 22.5115L10.276 21.9707C10.213 21.8714 10.1289 21.7873 10.0297 21.7243L9.48887 21.3803L21.4789 9.39005L23.3636 8.63646L22.6116 10.5212H22.61Z" fill="#F7F7F7"/>
</g>
<defs>
<clipPath id="clip0_45_4">
<rect width="32" height="32" fill="white"/>
</clipPath>
</defs>
</svg>
