<?xml version="1.0" encoding="utf-8"?>
<svg viewBox="69.6466 99.5783 78.0963 73.7441" xmlns="http://www.w3.org/2000/svg">
  <g id="layer1">
    <g id="g103919" transform="matrix(1.5443046,0,0,1.5443046,-7.0648673,-186.67561)">
      <g id="g103647" transform="translate(30.689139,51.553224)" style="fill:#000000">
        <path style="fill:#000000;stroke:none;stroke-width:3.63922;stroke-linecap:square;paint-order:stroke markers fill" d="m 160.7466,686.13483 c -0.51476,-0.0502 -2.09415,-0.20155 -3.50975,-0.33637 -20.15507,-1.91944 -39.18496,-9.98602 -54.34248,-23.03523 -3.328588,-2.8656 -9.035944,-8.7397 -11.574066,-11.91221 -13.380812,-16.72527 -20.116857,-36.42353 -19.532187,-57.11811 0.326592,-11.55983 2.766574,-22.39762 7.374948,-32.75768 0.804129,-1.3163 1.019422,-1.97325 2.614137,-3.65933 l 10e-7,31.08796 v 31.08794 l 7.89694,6.50439 7.89694,6.50439 0.05926,-34.88525 c 0.05609,-33.02288 0.08108,-34.88497 0.467967,-34.88 0.224788,0.003 4.56776,3.32551 9.65105,7.3836 5.08329,4.05808 12.40112,9.89344 16.26185,12.96746 3.86072,3.07402 15.42454,12.28476 25.69737,20.46831 l 18.67786,14.87918 42.27481,-29.40947 c 23.25115,-16.17521 42.43348,-29.49417 42.64192,-29.506 0.4764,-0.0271 4.16664,8.0874 6.04809,14.5221 7.89033,26.98559 2.41391,55.31311 -14.86201,76.87575 -15.47688,19.31719 -38.75501,31.6332 -65.72592,34.7743 -3.08724,0.35955 -15.69643,0.67045 -18.01673,0.44424 z m -35.70071,-73.56626 c 0.33083,0 29.7594,23.80221 41.69883,33.72655 l 1.08445,0.90143 38.80972,-28.31887 38.80971,-28.31886 0.15814,-0.98677 c 0.21842,-1.36287 0.23424,-15.37822 0.0173,-15.37053 -0.0965,0.003 -17.4961,12.06372 -38.66575,26.80065 -26.39676,18.37571 -38.63731,26.76764 -38.95824,26.7092 -0.34037,-0.062 -59.29825,-46.76573 -62.18109,-49.25703 -0.3897,-0.33677 -0.40911,1.16449 -0.40195,31.09468 l 0.008,31.44854 9.5273,8.23806 9.52729,8.23806 0.0597,-22.45255 c 0.0583,-21.93134 0.07,-22.45256 0.50704,-22.45256 z m 94.78101,30.1864 c 4.56881,-3.80473 13.91375,-11.58098 20.76654,-17.28055 l 12.45962,-10.36286 V 604.9292 c 0,-7.19602 -0.0742,-10.15762 -0.25306,-10.09801 -0.13918,0.0464 -9.61551,6.91472 -21.05851,15.26294 l -20.80544,15.17859 v 12.38041 c 0,9.83302 0.0601,12.34328 0.29196,12.19997 0.16057,-0.0992 4.03008,-3.2934 8.59889,-7.09813 z" id="path103339" transform="scale(0.26458333)"/>
        <path style="fill:#000000;stroke:none;stroke-width:3.63922;stroke-linecap:square;paint-order:stroke markers fill" d="m 102.84699,529.46261 c 0,0 1.15788,-1.32036 2.802,-2.62469 14.33893,-11.37558 31.13597,-18.30553 50.06697,-20.65612 4.84607,-0.60171 17.85032,-0.60171 22.69639,0 18.21964,2.26226 34.50069,8.74699 48.37172,19.26643 2.61026,1.97956 6.61438,5.68885 6.61438,5.68885 l -66.19449,50.30923 z" id="path103526" transform="scale(0.26458333)"/>
      </g>
      <path style="fill:#ffd200;fill-opacity:1;stroke:#000000;stroke-width:0;stroke-linecap:square;stroke-linejoin:miter;stroke-miterlimit:4;stroke-dasharray:none;paint-order:stroke markers fill" d="m 58.577669,221.13793 v -16.61229 l 16.581411,13.10334 20.54719,-14.18708 -0.0183,4.32022 -20.59403,15.02852 -11.319743,-9.16198 c 0,0 -3.71e-4,12.01718 1.19e-4,12.01719 z" id="path103651"/>
    </g>
  </g>
</svg>