<?xml version="1.0" encoding="utf-8"?>
<svg viewBox="217.354 177.555 179.751 107.154" xmlns="http://www.w3.org/2000/svg">
  <g id="layer1" transform="matrix(2.249054, 0, 0, 2.249054, 54.386055, -73.516136)" style="">
    <g id="g46754" transform="translate(34.44015,6.6658354)">
      <path style="display:inline;fill:#D4AF37;fill-opacity:0.988235;stroke:#000000;stroke-width:2.275;stroke-linecap:square;stroke-linejoin:miter;stroke-miterlimit:4;stroke-dasharray:none;stroke-opacity:0" d="m 80.10572,129.78145 -1.99899,1.63008 -1.9999,-1.60867 v 0 -3.29524 l -0.51556,-2.36125 c -10.7299,-3.49472 -16.57583,-5.87487 -27.02068,-9.11519 -0.50933,-0.15915 -1.81359,-0.55857 -2.89836,-0.88757 -1.08478,-0.32904 -2.06704,-0.64374 -2.18281,-0.69935 -0.16197,-0.0778 -0.47996,-0.50882 -1.37932,-1.8696 -2.19548,-3.32187 -4.08977,-6.26152 -4.08977,-6.34669 0,-0.1405 0.15766,-0.10044 0.9399,0.23881 0.64254,0.27869 11.34842,4.76308 33.489,14.02763 3.05594,1.27873 5.6009,2.32724 5.65547,2.33005 0.0546,0.003 3.03113,-1.236 6.61458,-2.75291 3.58346,-1.51691 10.07236,-4.26368 14.4198,-6.10394 4.34743,-1.84023 10.24102,-4.34242 13.09687,-5.5604 l 5.70715,-2.43901 c 0,0 -0.26919,0.42317 -2.23404,3.44892 l -3.21392,4.94922 -8.14708,2.59204 c 0,0 -17.89272,6.66839 -23.76278,8.188 l -0.47956,2.36123 z" id="path23672"/>
      <path style="display:inline;fill:#D4AF37;fill-opacity:0.988235;stroke:#000000;stroke-width:1.1375;stroke-linecap:square;stroke-linejoin:miter;stroke-miterlimit:4;stroke-dasharray:none;stroke-opacity:0" d="m 78.106729,145.40035 -8.477437,7.21207 7.971157,-19.70609 0.50628,0.34414 0.498311,-0.34414 7.55001,19.7045 -8.048321,-7.21207 z" id="path39673"/>
      <path style="display:inline;fill:#1A1A1A;fill-opacity:0.988235;stroke:#000000;stroke-width:0.048423;stroke-linecap:square;stroke-linejoin:round;stroke-opacity:0" d="m 73.90099,125.77852 c -0.28186,-0.0322 -5.45628,-0.60576 -11.4987,-1.27449 -6.04243,-0.66873 -11.09348,-1.23666 -11.22456,-1.26206 -0.26153,-0.0507 -0.27525,-0.0693 -2.70638,-3.66555 -1.21934,-1.80373 -1.12427,-1.63056 -0.86696,-1.5791 0.11658,0.0233 3.09743,0.87636 6.62411,1.89565 3.52668,1.01929 9.56798,2.76485 13.42511,3.87902 3.85712,1.11416 7.02567,2.03847 7.04122,2.05401 0.0366,0.0366 -0.16278,0.0247 -0.79384,-0.0475 z" id="path1071"/>
      <path style="display:inline;fill:#1A1A1A;fill-opacity:0.988235;stroke:#000000;stroke-width:0.048423;stroke-linecap:square;stroke-linejoin:round;stroke-opacity:0" d="m 56.755,130.23069 c -0.47979,-0.59255 -1.08833,-1.35122 -1.35232,-1.68592 l -0.47999,-0.60858 1.00125,-0.0425 c 0.55069,-0.0234 2.15432,-0.0745 3.56364,-0.11357 1.40931,-0.0391 5.0559,-0.14231 8.10354,-0.22934 5.55517,-0.15866 6.70654,-0.18165 6.65686,-0.13292 -0.0374,0.0366 -15.82623,3.74262 -16.39518,3.8483 l -0.22546,0.0419 z" id="path1110"/>
      <path style="display:inline;fill:#1A1A1A;fill-opacity:0.988235;stroke:#000000;stroke-width:0.048423;stroke-linecap:square;stroke-linejoin:round;stroke-opacity:0" d="m 64.38814,134.97445 c -1.4974,-0.11328 -2.79461,-0.20908 -2.88269,-0.21288 -0.13489,-0.006 -0.14337,-0.0167 -0.0538,-0.069 0.25467,-0.14863 12.74181,-5.01186 12.77741,-4.97625 0.0282,0.0282 -0.002,0.0522 -2.98657,2.35089 -2.33893,1.80165 -3.6233,2.77491 -3.93966,2.98537 l -0.19218,0.12784 z" id="path1149"/>
      <path style="display:inline;fill:#D4AF37;fill-opacity:0.988235;stroke:#000000;stroke-width:0.048423;stroke-linecap:square;stroke-linejoin:round;stroke-opacity:0" d="m 71.38513,140.92429 c -0.10876,-0.41399 -0.34533,-1.47338 -0.52573,-2.3542 -0.18039,-0.88082 -0.33807,-1.63236 -0.35039,-1.6701 -0.0248,-0.0761 0.78154,-1.01051 3.41522,-3.95759 0.97137,-1.08695 1.77507,-1.94946 1.786,-1.91666 0.0201,0.0604 -0.71278,2.00471 -2.77139,7.35218 -1.36039,3.53376 -1.26677,3.29906 -1.31598,3.29906 -0.022,0 -0.12897,-0.33871 -0.23773,-0.75269 z" id="path1188"/>
      <path style="display:inline;fill:#1A1A1A;fill-opacity:0.988235;stroke:#000000;stroke-width:0.048423;stroke-linecap:square;stroke-linejoin:round;stroke-opacity:0" d="m 81.84999,125.77852 c 0.28187,-0.0322 5.45629,-0.60576 11.49871,-1.27449 6.04242,-0.66873 11.09347,-1.23666 11.22456,-1.26206 0.26152,-0.0507 0.27525,-0.0693 2.70638,-3.66555 1.21934,-1.80373 1.12427,-1.63056 0.86696,-1.5791 -0.11658,0.0233 -3.09743,0.87636 -6.62411,1.89565 -3.52668,1.01929 -9.56798,2.76485 -13.42511,3.87902 -3.85713,1.11416 -7.02569,2.03847 -7.04123,2.05401 -0.0366,0.0366 0.16277,0.0247 0.79384,-0.0475 z" id="path1499"/>
      <path style="display:inline;fill:#1A1A1A;fill-opacity:0.988235;stroke:#000000;stroke-width:0.048423;stroke-linecap:square;stroke-linejoin:round;stroke-opacity:0" d="m 98.99599,130.23069 c 0.47978,-0.59255 1.08833,-1.35122 1.35232,-1.68592 l 0.47999,-0.60858 -1.00125,-0.0425 c -0.55069,-0.0234 -2.15432,-0.0745 -3.56364,-0.11357 -1.40931,-0.0391 -5.0559,-0.14231 -8.10354,-0.22934 -5.55518,-0.15866 -6.70655,-0.18165 -6.65687,-0.13292 0.0374,0.0366 15.82624,3.74262 16.39519,3.8483 l 0.22546,0.0419 z" id="path1501"/>
      <path style="display:inline;fill:#1A1A1A;fill-opacity:0.988235;stroke:#000000;stroke-width:0.048423;stroke-linecap:square;stroke-linejoin:round;stroke-opacity:0" d="m 91.36285,134.97445 c 1.4974,-0.11328 2.7946,-0.20908 2.88269,-0.21288 0.13489,-0.006 0.14337,-0.0167 0.0538,-0.069 -0.25466,-0.14863 -12.74181,-5.01186 -12.77741,-4.97625 -0.0282,0.0282 0.002,0.0522 2.98657,2.35089 2.33894,1.80165 3.62331,2.77491 3.93967,2.98537 l 0.19218,0.12784 z" id="path1503"/>
      <path style="display:inline;fill:#D4AF37;fill-opacity:0.988235;stroke:#000000;stroke-width:0.048423;stroke-linecap:square;stroke-linejoin:round;stroke-opacity:0" d="m 84.36585,140.92429 c 0.10876,-0.41399 0.34534,-1.47338 0.52574,-2.3542 0.18039,-0.88082 0.33806,-1.63236 0.35038,-1.6701 0.0248,-0.0761 -0.78154,-1.01051 -3.41522,-3.95759 -0.97137,-1.08695 -1.77508,-1.94946 -1.78601,-1.91666 -0.0201,0.0604 0.71279,2.00471 2.77141,7.35218 1.36038,3.53376 1.26676,3.29906 1.31598,3.29906 0.022,0 0.12897,-0.33871 0.23772,-0.75269 z" id="path1505"/>
      <path style="display:inline;fill:#1A1A1A;fill-opacity:0.988235;stroke:#000000;stroke-width:0.048423;stroke-linecap:square;stroke-linejoin:round;stroke-opacity:0" d="m 71.38513,140.92429 c -0.10876,-0.41399 -0.34533,-1.47338 -0.52573,-2.3542 -0.18039,-0.88082 -0.33807,-1.63236 -0.35039,-1.6701 -0.0248,-0.0761 0.78154,-1.01051 3.41522,-3.95759 0.97137,-1.08695 1.77507,-1.94946 1.786,-1.91666 0.0201,0.0604 -0.71278,2.00471 -2.77139,7.35218 -1.36039,3.53376 -1.26677,3.29906 -1.31598,3.29906 -0.022,0 -0.12897,-0.33871 -0.23773,-0.75269 z" id="path3913"/>
      <path style="display:inline;fill:#D4AF37;fill-opacity:0.988235;stroke:#000000;stroke-width:0.048423;stroke-linecap:square;stroke-linejoin:round;stroke-opacity:0" d="m 84.36585,140.92429 c 0.10876,-0.41399 0.34534,-1.47338 0.52574,-2.3542 0.18039,-0.88082 0.33806,-1.63236 0.35038,-1.6701 0.0248,-0.0761 -0.78154,-1.01051 -3.41522,-3.95759 -0.97137,-1.08695 -1.77508,-1.94946 -1.78601,-1.91666 -0.0201,0.0604 0.71279,2.00471 2.77141,7.35218 1.36038,3.53376 1.26676,3.29906 1.31598,3.29906 0.022,0 0.12897,-0.33871 0.23772,-0.75269 z" id="path3915"/>
      <path style="display:inline;fill:#1A1A1A;fill-opacity:0.988235;stroke:#000000;stroke-width:0.048423;stroke-linecap:square;stroke-linejoin:round;stroke-opacity:0" d="m 84.36585,140.92429 c 0.10876,-0.41399 0.34534,-1.47338 0.52574,-2.3542 0.18039,-0.88082 0.33806,-1.63236 0.35038,-1.6701 0.0248,-0.0761 -0.78154,-1.01051 -3.41522,-3.95759 -0.97137,-1.08695 -1.77508,-1.94946 -1.78601,-1.91666 -0.0201,0.0604 0.71279,2.00471 2.77141,7.35218 1.36038,3.53376 1.26676,3.29906 1.31598,3.29906 0.022,0 0.12897,-0.33871 0.23772,-0.75269 z" id="path3917"/>
      <path style="display:inline;fill:#1A1A1A;fill-opacity:0.988235;stroke:#000000;stroke-width:2.34745;stroke-linecap:square;stroke-linejoin:miter;stroke-miterlimit:4;stroke-dasharray:none;stroke-opacity:0" d="m 78.10673,121.07375 -2.94236,-1.2221 0.4269,-2.71442 0.51556,-1.04415 1.49362,-1.76085 0.50628,-2.87326 0.49831,2.87326 1.50068,1.76085 0.47956,1.04415 0.62817,2.74746 z" id="path14381"/>
    </g>
  </g>
</svg>