<?xml version="1.0" encoding="utf-8"?>
<svg viewBox="33.258 176.336 430.903 64.38" xmlns="http://www.w3.org/2000/svg">
  <g id="g192479" style="fill:#000000" transform="matrix(2.653337, 0, 0, 2.653337, -61.422199, -150.922816)">
    <g id="g1105" style="fill:#1a1a1a;fill-opacity:1">
      <path style="opacity:1;fill:#1a1a1a;fill-opacity:1;stroke:#4d4d4d;stroke-width:3.02882;stroke-linecap:square;stroke-linejoin:bevel;stroke-miterlimit:4;stroke-dasharray:none;stroke-opacity:0;paint-order:stroke markers fill" d="m 35.683317,147.58129 h 5.338836 l 0.04916,-11.39551 7.845152,6.25766 7.250113,-6.19179 v 11.32964 h 5.133447 l -0.198437,-24.12617 h -0.92218 l -11.394684,9.50304 -11.977502,-9.50304 h -1.123909 z" id="path193087" transform="translate(-1.0833333e-6)"/>
      <path style="fill:#1a1a1a;fill-opacity:1;stroke-width:0.156559" d="m 73.075767,129.46787 3.084942,-6.01275 15.402903,24.12616 -7.305057,1e-5 z m 20.357058,-5.96844 18.153875,-0.0443 c 2.51975,0 5.10831,2.30106 5.10934,4.54683 l 0.007,15.31115 c 0,2.76843 -2.5827,4.26791 -5.11644,4.26791 l -18.456957,-3e-5 z m 17.836555,14.50438 0.0123,-4.67182 c 0.0381,-1.84726 -0.82143,-4.05852 -3.56324,-4.05852 h -8.773161 v 12.28281 l 8.773161,-0.0331 c 1.2813,-0.005 3.46647,-1.31834 3.55089,-3.5194 z" id="path74982"/>
      <path style="opacity:1;fill:#1a1a1a;fill-opacity:1;stroke:#4d4d4d;stroke-width:6.08301;stroke-linecap:square;stroke-linejoin:bevel;stroke-miterlimit:4;stroke-dasharray:none;stroke-opacity:0;paint-order:stroke markers fill" d="m 75.254355,136.50383 -3.252003,-5.26745 -8.887367,16.27221 6.088978,0.0727" id="path155037"/>
    </g>
  </g>
  <g id="g4366" style="fill:#d4af37;fill-opacity:1" transform="matrix(2.653337, 0, 0, 2.653337, 19.32029, 160.712234)">
    <path style="fill:#d4af37;fill-opacity:1;stroke:none;stroke-width:4.98369;stroke-linecap:square;stroke-miterlimit:4;stroke-dasharray:none;stroke-opacity:0" d="m 118.67302,147.58129 -0.0473,-24.12617 h 4.91073 l 14.77663,15.0424 v -15.0424 h 5.36037 l -0.0667,24.12617 h -5.29381 l -14.68726,-14.99736 0.0827,14.99736 z" id="path78984" transform="translate(-30.430544,-117.45023)"/>
    <path style="fill:#d4af37;fill-opacity:1;opacity:1;stroke:#4d4d4d;stroke-width:6.08301;stroke-linecap:square;stroke-linejoin:bevel;stroke-miterlimit:4;stroke-dasharray:none;stroke-opacity:0;paint-order:stroke markers fill" d="m 310.87865,218.08281 20.58873,-21.3651 8.73125,8.86354 -12.72076,12.50156 z" id="path165160" transform="matrix(0.46618948,0,0,0.43997838,-6.3263801,-65.82066)"/>
    <path style="fill:#d4af37;fill-opacity:1;opacity:1;stroke:#4d4d4d;stroke-width:6.08301;stroke-linecap:square;stroke-linejoin:bevel;stroke-miterlimit:4;stroke-dasharray:none;stroke-opacity:0;paint-order:stroke markers fill" d="m 320.48717,162.98333 v 18.91771 l 35.04669,36.18177 h 17.66094 l -21.38758,-22.52266 14.05599,-14.05599 v -18.25625 l -22.42344,22.42344" id="path165195" transform="matrix(0.46618948,0,0,0.43997838,-6.3263801,-65.82066)"/>
    <path style="fill:#d4af37;stroke-width:0.0341098;fill-opacity:1" d="m 120.29357,30.130834 c -1.57671,-0.144609 -3.01328,-1.009073 -3.90189,-2.34798 -0.37183,-0.560228 -0.63108,-1.190891 -0.7853,-1.910295 l -0.0757,-0.353059 v -7.441631 -7.441631 l 0.0766,-0.349393 c 0.50919,-2.3240523 2.34886,-3.994248 4.65637,-4.2274555 0.28424,-0.028725 2.20474,-0.036056 7.07395,-0.027012 6.14214,0.011422 6.70714,0.01718 6.97214,0.07109 1.96117,0.3989899 3.45671,1.7159867 4.07225,3.5860984 0.27428,0.8333411 0.25355,0.1461909 0.25355,8.4054461 v 7.355895 l -0.0773,0.385037 c -0.21932,1.093628 -0.68227,1.96467 -1.46425,2.755078 -0.78643,0.794903 -1.66482,1.265089 -2.76658,1.480912 -0.37344,0.07316 -0.38376,0.07326 -7.05776,0.07949 -3.67607,0.0033 -6.81534,-0.0059 -6.97614,-0.02059 z m 12.80919,-9.729598 c 0.0247,-4.021711 0.005,-4.96327 -0.11276,-5.447109 -0.38683,-1.585629 -1.64557,-2.766414 -3.25069,-3.049336 -0.24669,-0.04349 -0.92222,-0.05113 -4.50972,-0.05113 h -4.21956 l 1.4e-4,4.278082 c 1e-4,3.683239 0.007,4.323246 0.0522,4.602922 0.13513,0.842297 0.51095,1.573429 1.13083,2.199991 0.48809,0.493334 0.98326,0.797579 1.64082,1.008147 0.56884,0.182155 0.53552,0.180937 5.05142,0.184513 l 4.1943,0.0032 z" id="path2882"/>
  </g>
</svg>