<?xml version="1.0" standalone="no"?>
<!DOCTYPE svg PUBLIC "-//W3C//DTD SVG 20010904//EN"
 "http://www.w3.org/TR/2001/REC-SVG-20010904/DTD/svg10.dtd">
<svg version="1.0" xmlns="http://www.w3.org/2000/svg"
 width="1440.000000pt" height="1440.000000pt" viewBox="0 0 1440.000000 1440.000000"
 preserveAspectRatio="xMidYMid meet">
<metadata>
Created by potrace 1.14, written by Peter Selinger 2001-2017
</metadata>
<g transform="translate(0.000000,1440.000000) scale(0.100000,-0.100000)"
fill="#000000" stroke="none">
<path d="M14284 11442 c-106 -48 -147 -65 -156 -63 -5 0 -8 -3 -8 -9 0 -5 -3
-9 -7 -8 -5 1 -21 -4 -38 -11 -54 -22 -219 -92 -250 -106 -16 -7 -48 -22 -70
-32 -22 -10 -42 -18 -45 -19 -8 -1 -61 -23 -105 -43 -106 -49 -135 -61 -141
-61 -4 0 -25 -9 -48 -20 -23 -10 -75 -33 -116 -50 -41 -17 -90 -38 -107 -46
-18 -8 -50 -21 -70 -30 -21 -8 -51 -22 -66 -30 -16 -8 -32 -14 -37 -14 -4 0
-39 -14 -77 -32 -37 -17 -72 -32 -78 -34 -14 -3 -149 -61 -212 -90 -28 -13
-55 -24 -60 -24 -5 0 -25 -9 -46 -20 -20 -11 -39 -20 -42 -20 -3 0 -26 -10
-52 -22 -27 -11 -54 -21 -60 -21 -7 0 -13 -4 -13 -9 0 -4 -5 -8 -11 -8 -10 0
-303 -122 -379 -158 -19 -9 -40 -17 -46 -18 -5 -1 -37 -14 -70 -29 -32 -15
-63 -28 -69 -29 -5 -1 -19 -7 -30 -13 -43 -22 -320 -137 -327 -135 -5 1 -8 -2
-8 -8 0 -5 -6 -10 -14 -10 -7 0 -31 -8 -52 -17 -22 -9 -41 -17 -44 -18 -3 -1
-27 -11 -53 -23 -27 -12 -50 -22 -52 -22 -2 0 -38 -16 -79 -35 -42 -19 -78
-35 -80 -35 -3 0 -85 -34 -183 -75 -193 -82 -196 -83 -265 -114 -26 -12 -50
-21 -52 -21 -3 0 -34 -13 -69 -30 -36 -16 -71 -30 -79 -30 -8 0 -18 -4 -23 -9
-6 -5 -50 -25 -100 -46 -49 -21 -119 -50 -155 -65 -97 -40 -104 -43 -112 -42
-5 1 -8 -2 -8 -6 0 -4 -17 -14 -37 -21 -38 -13 -75 -28 -148 -61 -22 -10 -80
-35 -130 -55 -49 -20 -125 -52 -167 -71 -43 -19 -80 -34 -83 -34 -4 0 -30 -11
-58 -24 -29 -13 -108 -48 -177 -76 -69 -29 -138 -58 -155 -66 -16 -7 -59 -25
-95 -40 -36 -15 -81 -34 -100 -42 -19 -9 -37 -16 -40 -17 -3 0 -15 -6 -27 -13
-13 -7 -23 -10 -23 -6 0 3 -6 2 -12 -4 -7 -5 -85 -40 -173 -76 -88 -37 -169
-71 -180 -76 -63 -29 -160 -71 -160 -69 0 1 -16 -5 -35 -14 -19 -8 -123 -51
-230 -96 -107 -45 -204 -86 -215 -91 -48 -22 -118 -51 -225 -95 -63 -25 -134
-55 -157 -66 -24 -10 -49 -19 -56 -19 -8 0 -17 -3 -21 -7 -4 -4 -26 -15 -49
-23 -40 -15 -45 -15 -100 7 -32 13 -66 28 -75 32 -9 5 -75 33 -147 61 -71 29
-143 58 -160 66 -16 7 -55 23 -85 35 -30 11 -66 26 -80 32 -14 5 -28 10 -32 9
-5 -1 -8 2 -8 8 0 5 -8 10 -18 10 -10 0 -22 3 -26 8 -4 4 -11 7 -14 8 -4 0
-18 6 -32 12 -41 19 -339 142 -344 142 -2 0 -25 10 -52 22 -27 12 -51 23 -54
23 -3 1 -23 9 -45 19 -22 10 -60 26 -85 36 -45 18 -488 203 -525 219 -79 35
-116 50 -158 66 -26 10 -50 22 -53 26 -3 5 -12 9 -20 9 -8 0 -39 11 -67 24
-29 13 -88 38 -132 55 -44 18 -93 38 -110 46 -34 16 -221 94 -280 118 -22 8
-58 23 -80 33 -22 10 -42 18 -45 19 -7 2 -39 16 -193 81 -72 30 -170 71 -217
91 -47 19 -115 48 -152 64 -36 16 -68 29 -71 29 -2 0 -25 9 -51 20 -25 12 -49
21 -53 21 -5 1 -19 7 -33 15 -14 7 -72 32 -130 55 -58 23 -109 46 -114 51 -6
4 -18 8 -28 8 -10 0 -18 4 -18 8 0 5 -6 9 -12 9 -11 1 -67 24 -258 106 -14 5
-27 11 -30 12 -3 1 -16 6 -30 12 -14 6 -54 23 -90 38 -36 15 -78 33 -95 40
-78 34 -261 110 -265 111 -3 0 -23 8 -45 18 -22 10 -62 27 -90 38 -27 11 -63
26 -80 33 -16 8 -129 55 -250 105 -121 50 -233 97 -250 105 -16 7 -59 25 -95
40 -36 14 -78 32 -95 39 -16 8 -70 30 -120 51 -49 20 -114 48 -143 61 -29 13
-57 24 -62 24 -6 0 -18 4 -28 10 -15 8 -44 21 -147 65 -16 7 -70 29 -120 50
-49 20 -106 44 -125 52 -19 9 -48 21 -65 28 -16 7 -70 30 -120 50 -49 20 -99
40 -110 45 -11 5 -42 18 -70 30 -27 12 -59 25 -70 30 -11 5 -65 28 -120 51
-55 23 -160 66 -233 96 -90 37 -137 52 -144 45 -7 -7 10 -42 53 -108 34 -55
67 -109 73 -121 6 -13 14 -23 19 -23 4 0 7 -4 7 -10 0 -7 83 -139 152 -241 13
-20 89 -136 103 -157 22 -34 281 -431 324 -497 25 -38 48 -72 51 -75 3 -3 32
-45 65 -95 70 -106 137 -175 169 -175 12 0 26 -4 31 -8 9 -8 137 -50 169 -56
12 -3 191 -58 422 -132 45 -14 88 -27 95 -28 8 -2 21 -6 29 -9 27 -10 183 -57
191 -57 4 0 18 -4 31 -9 13 -5 26 -9 30 -10 4 -1 27 -9 50 -17 24 -9 48 -17
53 -18 26 -5 471 -148 585 -188 47 -16 93 -31 103 -33 10 -2 73 -23 140 -45
67 -23 129 -43 137 -45 8 -2 128 -43 265 -90 138 -48 257 -88 265 -90 8 -2 16
-4 18 -5 1 -2 7 -4 12 -5 6 -1 12 -4 15 -5 3 -1 9 -3 14 -4 5 0 13 -4 17 -8 4
-5 13 -8 20 -8 7 0 25 -5 41 -12 15 -6 33 -12 38 -14 6 -1 75 -25 155 -54 80
-28 152 -53 160 -55 8 -2 87 -29 175 -60 88 -31 212 -75 275 -97 63 -22 124
-43 135 -48 18 -8 51 -19 80 -26 6 -2 60 -22 120 -44 61 -23 117 -42 125 -42
8 0 21 -5 27 -11 7 -5 13 -6 13 -2 0 4 11 0 24 -8 13 -9 35 -18 48 -21 19 -4
137 -44 188 -63 8 -4 17 -7 20 -8 3 0 30 -9 60 -20 30 -11 57 -20 60 -20 3 -1
12 -5 20 -8 17 -7 323 -111 355 -121 11 -3 23 -5 26 -3 3 1 12 -3 20 -9 8 -6
28 -15 44 -19 35 -10 35 -10 55 -18 25 -10 564 -189 580 -192 8 -2 15 -4 15
-5 0 0 43 -15 95 -33 l95 -32 12 -55 c7 -30 14 -66 17 -80 3 -14 17 -79 32
-145 26 -116 28 -131 29 -429 l2 -310 24 -18 c13 -11 40 -32 59 -47 160 -130
276 -221 280 -221 3 0 19 12 36 28 17 15 96 80 176 144 l145 118 0 297 c1 164
4 312 8 328 3 17 8 41 10 55 2 14 4 25 5 25 2 0 4 9 6 20 1 11 5 32 8 48 3 15
8 37 10 50 3 12 8 33 11 47 3 14 8 39 10 55 16 95 10 90 165 131 104 28 466
140 710 221 107 36 200 66 205 67 6 2 17 6 25 9 8 3 40 13 70 23 30 9 60 19
65 23 6 3 15 6 20 7 12 2 333 111 355 121 8 3 20 7 27 9 19 3 330 113 403 141
36 14 70 26 75 27 17 3 150 48 160 55 6 3 15 6 21 7 5 1 62 21 125 44 63 24
120 43 127 43 6 0 12 5 12 10 0 6 3 8 6 4 5 -5 97 25 159 52 11 5 49 19 85 31
36 12 72 24 80 27 8 4 17 7 20 8 3 1 12 5 20 8 8 3 74 27 145 52 134 48 324
117 455 165 41 15 125 46 185 68 160 57 527 193 550 202 11 5 108 36 215 70
107 34 220 69 250 80 71 24 323 104 330 105 10 1 155 47 185 58 17 7 32 12 35
12 3 0 11 4 18 8 6 5 12 6 12 2 0 -3 15 1 33 8 17 8 34 14 37 15 3 0 12 3 20
6 8 2 92 29 185 58 l170 54 47 69 c25 39 96 147 156 240 61 94 115 175 121
182 6 7 11 15 11 18 0 3 17 32 39 63 21 31 62 93 90 137 28 44 60 91 71 105
11 14 20 28 20 32 0 4 25 44 55 89 30 45 55 83 55 86 0 2 11 19 25 37 14 18
25 38 25 44 0 6 3 12 8 14 11 5 87 122 84 131 -1 4 3 7 8 7 6 0 10 7 10 15 0
8 3 15 8 15 4 0 23 27 42 60 19 33 38 60 43 60 4 0 7 5 7 12 0 6 11 26 25 43
21 29 24 47 6 44 -3 0 -42 -17 -87 -37z"/>
<path d="M7219 10288 c0 -2 -2 -16 -4 -33 -2 -16 -6 -43 -10 -60 -3 -16 -8
-48 -11 -70 -2 -22 -7 -46 -10 -54 -2 -8 -7 -30 -10 -50 -2 -20 -7 -47 -11
-61 -3 -14 -7 -34 -8 -45 -1 -11 -5 -34 -10 -50 -5 -17 -7 -36 -6 -43 2 -12
-42 -67 -179 -226 -14 -16 -38 -43 -53 -60 -41 -44 -133 -233 -141 -287 -6
-44 -10 -65 -21 -134 -2 -16 -7 -48 -10 -70 -4 -22 -8 -51 -11 -65 -10 -58
-16 -107 -18 -139 l-1 -34 250 -105 c240 -101 313 -122 323 -93 2 6 8 9 13 6
4 -3 20 1 33 10 14 9 29 17 33 17 9 0 47 14 78 27 40 17 213 83 226 85 8 2 36
13 62 24 27 12 53 22 58 22 6 0 8 3 5 8 -2 4 -7 27 -11 52 -4 25 -10 49 -13
55 -4 5 -8 19 -9 30 -2 11 -7 38 -12 60 -22 90 -27 111 -35 155 -19 98 -35
148 -80 243 -24 51 -55 104 -67 118 -13 15 -40 46 -61 70 -20 24 -46 55 -58
69 -123 141 -126 146 -133 200 -4 25 -16 97 -27 160 -12 63 -22 124 -24 135
-2 11 -7 40 -11 65 -4 25 -8 51 -8 58 0 10 -15 18 -18 10z"/>
<path d="M1710 9140 c0 -5 52 -87 115 -181 63 -95 115 -176 115 -181 0 -4 4
-8 8 -8 5 0 18 -18 31 -40 12 -22 28 -45 34 -52 7 -7 23 -30 36 -51 13 -21 30
-44 38 -52 8 -8 11 -15 6 -15 -4 0 -3 -4 2 -8 6 -4 34 -43 64 -87 96 -143 184
-255 205 -262 12 -3 35 -7 51 -9 17 -1 53 -5 80 -8 91 -12 136 -17 178 -21 23
-2 58 -6 77 -9 19 -2 60 -7 90 -10 30 -4 78 -9 105 -12 28 -3 64 -7 80 -9 106
-12 134 -15 170 -20 22 -3 69 -7 105 -10 36 -3 81 -8 100 -11 19 -3 55 -7 80
-9 25 -3 65 -7 90 -11 25 -3 65 -7 90 -10 25 -3 65 -7 90 -10 25 -3 65 -7 90
-9 25 -2 59 -6 75 -9 17 -2 62 -8 100 -12 39 -3 86 -8 105 -11 19 -2 53 -5 75
-8 50 -4 129 -14 175 -20 19 -3 64 -8 100 -11 91 -8 119 -11 165 -17 22 -3 69
-9 105 -12 36 -4 78 -9 95 -11 16 -3 50 -7 75 -9 76 -7 120 -14 130 -20 6 -3
10 -1 10 5 0 6 5 8 10 5 10 -6 34 -10 120 -20 25 -3 86 -9 135 -15 145 -17
157 -18 230 -25 109 -11 127 -12 170 -18 76 -11 144 -19 197 -23 92 -9 206
-21 269 -30 20 -2 56 -7 80 -9 101 -10 136 -14 174 -20 83 -12 155 -14 155 -5
0 6 -3 9 -7 8 -5 -2 -28 3 -53 11 -42 12 -67 20 -73 21 -1 0 -47 14 -102 31
-55 17 -125 37 -155 45 -30 8 -74 21 -97 29 -23 8 -52 16 -65 19 -13 2 -52 13
-87 25 -35 12 -73 21 -83 21 -10 0 -18 5 -18 11 0 5 -4 8 -8 5 -5 -3 -37 4
-73 15 -35 11 -71 22 -79 24 -8 2 -42 11 -75 20 -33 10 -60 17 -60 16 0 -1
-13 3 -30 9 -16 7 -37 14 -45 16 -40 10 -128 36 -255 73 -77 23 -147 44 -155
46 -36 9 -128 35 -160 45 -19 6 -42 13 -50 15 -8 2 -40 11 -70 20 -77 23 -121
35 -149 41 -14 3 -28 7 -33 10 -4 3 -16 7 -25 9 -10 2 -40 11 -68 19 -27 8
-106 30 -175 50 -130 37 -180 52 -290 85 -36 11 -78 23 -95 27 -32 8 -32 8
-55 16 -29 11 -135 42 -155 46 -11 2 -24 5 -30 6 -14 3 -127 37 -145 44 -8 3
-19 6 -25 7 -5 1 -12 3 -15 4 -3 2 -12 4 -20 6 -18 4 -254 72 -295 85 -37 12
-172 50 -194 55 -9 2 -32 9 -51 15 -31 10 -129 38 -155 44 -24 6 -131 38 -145
43 -8 3 -24 8 -35 10 -28 6 -38 9 -55 16 -13 5 -140 42 -180 52 -8 2 -64 18
-125 36 -60 17 -117 33 -125 34 -8 2 -16 4 -17 5 -2 2 -7 4 -13 5 -5 1 -11 3
-12 5 -2 1 -10 3 -18 5 -8 1 -95 26 -193 54 -197 57 -187 55 -187 41z"/>
<path d="M12600 9134 c-30 -8 -102 -29 -160 -45 -119 -35 -164 -47 -199 -55
-14 -3 -29 -8 -34 -11 -5 -3 -39 -14 -76 -23 -36 -10 -97 -28 -136 -39 -38
-12 -81 -24 -95 -27 -14 -3 -61 -16 -105 -29 -86 -27 -424 -125 -440 -129 -42
-11 -76 -20 -112 -32 -23 -7 -52 -16 -65 -18 -52 -12 -664 -192 -675 -199 -7
-5 -13 -6 -13 -4 0 3 -21 -2 -47 -10 -27 -8 -82 -23 -123 -34 -41 -11 -82 -23
-90 -26 -18 -8 -15 -7 -70 -22 -25 -6 -56 -16 -70 -20 -14 -5 -54 -17 -90 -26
-36 -10 -72 -20 -80 -23 -8 -3 -19 -6 -25 -7 -5 -2 -36 -10 -69 -20 -32 -9
-64 -18 -70 -20 -6 -1 -18 -4 -26 -7 -8 -3 -58 -18 -110 -33 -52 -15 -126 -36
-163 -47 -37 -11 -73 -21 -80 -22 -7 -2 -19 -6 -27 -9 -13 -5 -487 -141 -530
-153 -8 -2 -46 -13 -85 -24 -38 -12 -77 -23 -85 -25 -8 -2 -31 -9 -50 -15 -19
-6 -44 -13 -56 -15 -11 -3 -50 -14 -85 -26 -64 -20 -79 -25 -121 -34 -13 -3
-34 -9 -48 -14 -26 -11 -100 -30 -113 -31 -4 0 -23 -6 -42 -14 -20 -9 -38 -15
-40 -16 -3 0 -6 0 -7 -1 -2 0 -10 -2 -18 -4 -68 -13 -278 -81 -290 -93 -11
-11 -11 -13 -1 -7 8 5 28 9 45 11 58 4 161 14 201 19 39 5 71 9 170 20 28 3
75 8 105 11 30 3 69 7 85 9 37 3 127 14 180 21 22 3 63 7 90 10 28 2 64 6 80
8 67 8 153 18 195 22 40 3 68 7 170 20 14 1 50 5 80 8 63 6 136 14 200 22 25
2 63 7 85 9 46 5 124 14 175 21 19 2 58 6 85 8 28 3 68 7 90 10 22 3 65 8 96
10 31 3 69 7 85 10 16 3 58 8 94 12 36 3 76 7 90 9 14 2 54 6 90 9 36 4 76 9
90 11 14 2 59 7 100 10 41 4 84 9 95 11 11 3 43 6 70 8 28 2 68 7 90 10 22 2
69 8 105 12 36 3 74 8 85 10 11 2 47 6 80 9 67 6 92 9 185 20 36 4 76 9 90 10
43 4 154 17 185 21 17 2 53 6 80 9 28 3 73 8 100 11 28 3 66 8 85 9 83 9 147
17 180 22 19 3 51 7 70 8 19 2 38 4 43 4 7 1 55 49 82 83 6 7 44 63 85 123 41
61 77 112 80 115 3 3 41 59 85 125 43 66 84 125 90 130 5 6 16 22 24 38 8 15
18 27 23 27 4 0 8 5 8 10 0 6 33 59 73 118 92 134 121 182 110 181 -4 0 -33
-7 -63 -15z"/>
<path d="M5870 7443 c0 -4 -53 -9 -118 -9 -132 -2 -496 -11 -742 -20 -91 -3
-230 -7 -310 -9 -80 -2 -235 -7 -345 -10 -110 -4 -276 -8 -370 -10 -93 -2
-170 -4 -170 -5 0 0 -74 -3 -165 -5 -525 -14 -617 -21 -584 -43 5 -4 43 -50
84 -102 80 -102 108 -135 128 -156 6 -7 12 -15 12 -19 0 -4 14 -20 30 -37 17
-16 30 -33 30 -36 0 -4 15 -23 33 -43 35 -40 41 -47 107 -132 42 -54 47 -57
80 -52 57 8 92 15 149 30 30 8 58 12 63 9 4 -3 8 -1 8 3 0 5 9 9 19 10 11 1
48 9 83 17 34 9 74 18 88 20 14 3 25 5 25 6 0 2 42 12 101 24 18 4 114 26 184
43 14 3 32 8 40 9 8 2 103 24 210 49 107 26 205 48 217 51 12 2 33 8 45 13 13
5 26 9 31 9 17 1 105 18 110 22 3 2 21 6 66 15 19 3 37 8 41 10 3 2 17 6 31 8
13 3 66 15 117 27 51 12 101 23 110 25 9 2 17 4 17 5 0 1 11 4 25 6 14 3 41 9
60 14 19 5 49 12 67 15 18 3 44 10 58 15 14 5 29 9 33 9 4 -1 9 0 12 1 3 1 12
3 20 5 8 1 76 17 150 35 74 18 146 34 160 36 14 3 34 8 45 11 11 4 25 8 30 9
12 2 233 54 255 59 8 3 71 18 139 34 68 16 126 33 129 36 4 4 -127 4 -291 2
-164 -3 -301 -8 -304 -11 -3 -3 -14 -1 -24 5 -11 5 -19 6 -19 2z"/>
<path d="M7915 7430 c39 -11 80 -22 93 -24 12 -3 30 -7 40 -10 9 -3 28 -8 42
-10 30 -7 97 -22 125 -29 71 -18 113 -28 135 -33 14 -3 50 -11 80 -19 55 -14
88 -21 145 -32 17 -3 38 -9 47 -14 9 -5 21 -8 25 -7 4 1 60 -11 123 -26 63
-15 122 -29 130 -31 8 -2 83 -20 165 -40 83 -20 161 -39 175 -41 14 -2 36 -7
50 -11 14 -4 30 -7 35 -8 8 -1 149 -34 215 -51 48 -12 98 -23 120 -28 48 -10
72 -15 90 -21 10 -3 29 -8 42 -11 28 -6 79 -17 173 -39 39 -9 79 -18 90 -21
23 -4 41 -9 105 -25 25 -6 52 -12 60 -14 8 -2 45 -10 81 -19 37 -8 79 -17 93
-20 14 -3 30 -7 34 -10 5 -3 24 -8 43 -10 19 -3 71 -14 116 -25 45 -11 92 -22
105 -25 13 -3 49 -10 81 -17 l58 -12 27 33 c15 19 35 42 45 52 9 10 17 22 17
27 0 5 3 11 8 13 6 2 70 78 105 123 4 6 17 21 28 35 11 14 33 40 47 59 47 60
132 165 152 189 11 13 20 26 20 29 0 3 10 14 22 24 11 11 17 19 12 20 -55 6
-304 17 -569 24 -88 2 -245 7 -350 10 -104 3 -262 7 -350 10 -88 2 -245 7
-350 10 -104 3 -266 8 -360 10 -93 2 -170 5 -170 5 0 0 -79 3 -175 5 -96 3
-263 8 -370 10 -107 3 -325 8 -485 10 l-290 4 70 -19z"/>
<path d="M6485 7020 c-32 -15 -258 -102 -270 -105 -5 -1 -23 -7 -40 -14 -65
-26 -501 -195 -528 -204 -9 -4 -18 -6 -20 -6 -1 0 -31 -13 -67 -29 -36 -16
-67 -29 -70 -30 -10 -2 -120 -43 -170 -65 -14 -5 -31 -9 -37 -8 -7 1 -13 -3
-13 -9 0 -5 -6 -10 -13 -10 -11 0 -85 -28 -202 -75 -11 -5 -22 -9 -25 -10 -14
-5 -48 -19 -75 -30 -16 -7 -97 -39 -180 -70 -172 -66 -391 -152 -420 -166 -11
-5 -47 -20 -80 -34 -33 -13 -55 -25 -50 -25 6 -1 17 -3 26 -5 9 -1 59 -6 110
-9 52 -4 119 -9 149 -12 51 -4 149 -11 265 -19 81 -6 279 -21 400 -30 l80 -6
160 120 c88 65 165 124 171 129 6 5 77 60 159 122 82 62 155 119 164 126 9 7
34 27 56 43 22 17 45 34 50 39 6 4 89 68 185 142 212 163 208 161 232 183 10
9 22 17 26 17 5 0 21 14 37 30 29 30 26 36 -10 20z"/>
<path d="M7860 7021 c0 -5 34 -36 76 -68 42 -32 82 -64 89 -70 8 -7 16 -13 19
-13 3 0 14 -8 24 -17 10 -10 72 -58 137 -108 65 -49 123 -95 129 -100 6 -6 32
-26 59 -45 26 -18 47 -37 47 -42 0 -4 4 -8 9 -8 6 0 110 -77 233 -171 123 -94
234 -180 248 -190 14 -11 62 -47 108 -80 l83 -60 87 6 c48 3 110 8 139 11 28
2 84 7 125 10 40 3 91 6 113 8 22 2 92 7 155 10 63 4 126 9 140 11 29 4 203
17 243 18 48 1 12 20 -183 97 -102 40 -198 78 -215 85 -16 7 -50 21 -75 30
-25 9 -54 21 -65 25 -11 5 -51 21 -90 35 -38 14 -83 32 -100 39 -38 18 -248
101 -255 101 -5 0 -55 19 -105 41 -16 7 -109 42 -205 79 -96 37 -188 73 -205
80 -16 7 -46 18 -65 25 -19 7 -48 18 -65 25 -16 7 -133 52 -260 100 -126 48
-239 91 -250 95 -19 8 -54 21 -65 25 -11 4 -45 18 -52 22 -5 2 -8 0 -8 -6z"/>
<path d="M6677 6677 c-59 -62 -116 -124 -127 -138 -12 -13 -51 -57 -87 -97
-70 -78 -108 -121 -143 -162 -12 -14 -38 -43 -58 -65 -21 -22 -85 -94 -142
-160 -58 -66 -109 -125 -115 -131 -5 -6 -28 -32 -50 -58 -22 -26 -52 -61 -68
-79 -28 -32 -28 -35 -13 -122 3 -22 25 -125 41 -200 3 -11 7 -29 9 -40 2 -11
11 -54 20 -95 9 -41 23 -106 31 -145 24 -114 78 -305 85 -305 6 0 74 153 75
170 0 6 81 213 95 245 24 54 38 95 33 95 -3 0 -1 6 5 13 5 6 24 50 42 97 80
213 95 252 137 360 24 63 48 124 53 135 5 11 13 34 18 50 11 30 97 257 109
285 3 8 7 17 7 20 1 4 13 36 36 95 4 11 13 34 20 50 7 17 23 59 35 95 12 36
34 95 48 133 15 37 22 67 18 67 -5 0 -56 -51 -114 -113z"/>
<path d="M7573 6783 c3 -5 35 -89 72 -188 85 -230 154 -413 168 -445 6 -14 11
-27 11 -30 1 -3 7 -18 13 -35 25 -60 36 -90 39 -100 1 -5 26 -71 55 -145 29
-74 54 -137 54 -140 0 -4 36 -96 75 -195 31 -78 83 -214 110 -285 18 -47 37
-96 43 -110 6 -14 11 -27 12 -30 2 -12 48 -128 63 -162 8 -21 19 -38 24 -38 6
0 22 44 33 90 0 3 14 57 29 120 16 63 30 124 32 135 2 11 11 52 20 90 8 39 17
79 19 91 1 11 9 47 16 80 16 73 14 63 22 104 4 19 10 46 13 60 18 84 17 99
-12 137 -15 21 -33 43 -39 49 -5 6 -32 37 -60 69 -27 32 -54 63 -60 69 -5 6
-41 47 -80 91 -38 44 -79 89 -90 100 -11 11 -30 33 -43 49 -12 16 -46 54 -75
86 -28 31 -74 82 -102 114 -27 31 -66 74 -85 95 -19 21 -80 86 -135 146 -55
59 -104 114 -108 121 -4 8 -15 14 -23 14 -8 0 -13 -3 -11 -7z"/>
<path d="M7115 6407 c-14 -32 -31 -76 -38 -98 -6 -21 -15 -39 -19 -39 -5 0 -8
-8 -8 -17 -1 -10 -9 -36 -20 -58 -11 -22 -19 -43 -20 -46 0 -4 -10 -28 -22
-55 -12 -27 -22 -51 -23 -54 0 -7 -25 -67 -50 -125 -12 -27 -26 -61 -30 -75
-4 -14 -13 -38 -20 -55 -48 -109 -113 -275 -107 -275 4 0 1 -4 -6 -9 -7 -4
-14 -14 -15 -22 -3 -17 -43 -119 -69 -176 -11 -24 -21 -49 -22 -55 -1 -7 -4
-18 -8 -23 -3 -6 -29 -69 -57 -140 -29 -72 -56 -139 -61 -150 -8 -17 -30 -70
-35 -85 -1 -3 -6 -16 -12 -30 -6 -14 -11 -27 -11 -30 -1 -7 -79 -196 -98 -237
-8 -17 -14 -38 -14 -47 0 -9 -4 -16 -10 -16 -5 0 -10 -7 -10 -16 0 -9 -7 -30
-15 -47 -7 -18 -35 -84 -60 -147 -25 -63 -50 -124 -55 -135 -5 -11 -19 -45
-30 -75 -12 -30 -28 -70 -37 -89 -8 -18 -16 -39 -18 -45 -1 -6 -7 -22 -12 -36
-6 -14 -23 -54 -37 -90 -15 -36 -31 -74 -36 -85 -5 -11 -52 -128 -105 -260
-53 -132 -100 -249 -105 -260 -5 -11 -19 -45 -31 -75 -11 -30 -26 -66 -32 -80
-6 -14 -11 -27 -12 -30 -1 -3 -9 -23 -18 -44 -22 -51 -18 -62 13 -34 36 32
192 166 248 211 26 21 70 58 97 82 28 24 136 116 240 205 105 88 204 173 220
188 17 15 46 40 65 56 55 44 142 119 162 139 10 9 22 17 27 17 5 0 11 4 13 9
2 5 55 52 118 106 63 54 128 109 145 124 16 14 58 49 92 78 l63 52 34 -32 c28
-27 108 -99 202 -182 24 -22 152 -137 190 -171 13 -12 58 -52 101 -90 97 -86
166 -149 269 -241 44 -40 90 -81 102 -92 26 -22 152 -135 192 -171 33 -30 143
-129 219 -197 30 -26 67 -60 84 -75 27 -26 47 -35 47 -23 0 3 -9 24 -19 48
-11 23 -33 80 -51 127 -17 47 -35 95 -40 108 -20 46 -29 69 -60 152 -18 47
-37 96 -43 110 -5 14 -11 30 -13 35 -2 9 -77 205 -147 385 -12 30 -21 57 -22
60 0 5 -37 100 -60 155 -23 57 -40 100 -40 105 -1 6 -61 164 -74 195 -5 11
-23 56 -39 100 -17 44 -53 139 -81 210 -28 72 -51 133 -51 138 0 4 -8 26 -18
50 -11 23 -29 69 -41 102 -13 33 -27 69 -31 80 -23 54 -170 442 -170 448 0 4
-9 26 -19 50 -17 38 -72 179 -123 317 -11 30 -26 69 -33 85 -7 17 -50 128 -95
247 l-83 217 -44 -30 -44 -30 -37 22 c-20 13 -40 28 -44 33 -4 6 -19 -15 -33
-47z"/>
</g>
</svg>
