<?xml version="1.0" encoding="utf-8"?>
<svg viewBox="-46.629 229.839 763.656 28.646" xmlns="http://www.w3.org/2000/svg">
  <path id="path12" d="M -1623.565 -174.047 C -1625.057 -174.039 -1626.548 -173.807 -1627.963 -173.397 C -1631.643 -172.118 -1634.872 -169.403 -1636.49 -165.826 C -1637.354 -163.893 -1638.023 -161.778 -1637.81 -159.629 C -1637.752 -155.605 -1635.975 -151.632 -1632.986 -148.925 C -1629.267 -145.671 -1623.776 -144.531 -1619.104 -146.229 C -1615.951 -147.172 -1613.43 -149.507 -1611.642 -152.203 C -1610.459 -150.873 -1609.382 -149.402 -1607.859 -148.431 C -1605.527 -146.707 -1602.602 -145.835 -1599.704 -145.934 C -1373.472 -145.966 -1147.253 -145.934 -921.036 -145.948 C -917.483 -145.989 -913.916 -145.81 -910.354 -146.03 C -907.456 -146.291 -904.796 -147.721 -902.63 -149.605 C -901.846 -150.43 -901.131 -151.337 -900.4 -152.214 C -898.457 -148.966 -895.142 -146.63 -891.45 -145.818 C -887.924 -144.826 -884.064 -145.677 -880.994 -147.597 C -878.567 -148.918 -876.756 -151.149 -875.58 -153.621 C -873.298 -158.246 -873.882 -164.108 -876.976 -168.222 C -879.09 -171.261 -882.539 -173.235 -886.14 -173.882 C -889.651 -174.282 -893.378 -173.636 -896.35 -171.661 C -897.956 -170.463 -899.258 -168.922 -900.601 -167.455 C -901.897 -169.155 -903.389 -170.78 -905.284 -171.798 C -906.915 -172.736 -908.752 -173.297 -910.585 -173.626 C -914.25 -173.897 -917.927 -173.718 -921.586 -173.748 L -1589.377 -173.748 C -1592.979 -173.73 -1596.582 -173.85 -1600.183 -173.694 C -1604.718 -173.575 -1609.083 -171.075 -1611.526 -167.262 C -1613.179 -169.636 -1615.335 -171.742 -1618.027 -172.877 C -1619.759 -173.698 -1621.668 -174.058 -1623.584 -174.047 L -1623.565 -174.047 Z M -1623.419 -169.044 C -1620.377 -169.044 -1617.473 -167.245 -1615.839 -164.711 C -1614.144 -161.757 -1613.885 -157.863 -1615.762 -154.925 C -1617.135 -152.754 -1619.369 -150.933 -1622.004 -150.68 C -1623.374 -150.563 -1624.771 -150.548 -1626.126 -150.8 C -1629.244 -151.596 -1631.776 -154.208 -1632.53 -157.324 C -1632.761 -158.401 -1632.982 -159.496 -1632.915 -160.589 C -1632.635 -162.866 -1631.581 -165.036 -1629.907 -166.606 C -1628.352 -167.934 -1626.439 -168.89 -1624.364 -168.982 C -1624.05 -169.024 -1623.732 -169.044 -1623.419 -169.044 Z M -888.572 -169.027 C -885.137 -169.086 -881.648 -167.055 -880.175 -163.908 C -879.388 -162.432 -879.174 -160.722 -879.097 -159.069 C -879.362 -155.707 -881.526 -152.502 -884.697 -151.253 C -887.154 -150.404 -890.034 -150.135 -892.386 -151.414 C -894.976 -152.536 -896.785 -155.072 -897.353 -157.794 C -898.14 -161.021 -896.979 -164.637 -894.394 -166.741 C -893.023 -168.09 -891.137 -168.753 -889.258 -168.99 C -889.031 -169.012 -888.802 -169.026 -888.572 -169.027 Z M -1595.53 -168.329 C -1593.747 -168.323 -1591.962 -168.284 -1590.18 -168.295 L -1231.213 -168.295 L -1046.418 -168.295 C -1002.356 -168.306 -958.295 -168.276 -914.233 -168.316 C -912.276 -168.346 -910.178 -168.238 -908.419 -167.277 C -906.629 -166.23 -904.953 -164.703 -904.266 -162.687 C -903.511 -160.469 -903.451 -157.859 -904.692 -155.799 C -906.079 -153.242 -908.897 -151.358 -911.85 -151.44 C -915.006 -151.318 -918.156 -151.412 -921.301 -151.399 L -1590.439 -151.399 C -1593.597 -151.412 -1596.758 -151.333 -1599.916 -151.414 C -1602.225 -151.315 -1604.524 -152.344 -1606.061 -154.048 C -1607.291 -155.551 -1608.191 -157.371 -1608.283 -159.336 C -1608.238 -161.015 -1608.016 -162.744 -1607.062 -164.173 C -1605.653 -166.253 -1603.375 -167.805 -1600.861 -168.143 C -1599.084 -168.3 -1597.301 -168.332 -1595.52 -168.329 L -1595.53 -168.329 Z M -1505.97 -167.739 C -1506.261 -167.733 -1506.552 -167.701 -1506.847 -167.634 C -1508.478 -167.47 -1510.056 -166.811 -1511.222 -165.642 C -1512.53 -164.543 -1513.15 -162.92 -1513.967 -161.468 C -1514.523 -163.585 -1515.864 -165.449 -1517.703 -166.642 C -1520.936 -168.46 -1525.501 -167.812 -1527.776 -164.773 C -1528.591 -163.813 -1528.984 -162.61 -1529.431 -161.459 C -1530.03 -162.569 -1530.496 -163.764 -1531.229 -164.788 C -1532.951 -166.852 -1535.777 -168.036 -1538.452 -167.602 C -1540.111 -167.374 -1541.625 -166.491 -1542.855 -165.387 C -1543.898 -164.194 -1544.521 -162.71 -1545.13 -161.26 C -1545.857 -163.178 -1546.67 -165.248 -1548.515 -166.358 C -1551.451 -168.355 -1555.744 -168.105 -1558.301 -165.592 C -1559.527 -164.609 -1559.916 -163.033 -1560.527 -161.66 C -1560.626 -161.654 -1560.82 -161.647 -1560.919 -161.641 C -1561.442 -162.843 -1561.968 -164.081 -1562.794 -165.105 C -1563.777 -166.258 -1565.17 -166.939 -1566.579 -167.403 C -1569.593 -168.28 -1573.145 -167.063 -1574.888 -164.423 C -1575.519 -163.439 -1575.987 -162.351 -1576.446 -161.269 C -1576.848 -162.443 -1577.293 -163.623 -1577.98 -164.652 C -1578.769 -165.639 -1579.793 -166.429 -1580.95 -166.939 C -1584.097 -168.477 -1588.29 -167.493 -1590.352 -164.639 C -1591.141 -163.644 -1591.517 -162.411 -1591.998 -161.252 C -1592.727 -163.022 -1593.418 -165.019 -1595.126 -166.074 C -1597.519 -167.844 -1600.946 -168.21 -1603.559 -166.719 C -1605.542 -165.477 -1607.25 -163.51 -1607.594 -161.132 C -1607.643 -159.362 -1607.609 -157.442 -1606.692 -155.863 C -1605.879 -154.508 -1604.688 -153.389 -1603.298 -152.628 C -1601.502 -151.801 -1599.465 -151.788 -1597.557 -152.162 C -1596.415 -152.429 -1595.483 -153.219 -1594.574 -153.911 C -1593.251 -155.017 -1592.671 -156.672 -1592.019 -158.207 C -1591.23 -156.195 -1590.339 -153.971 -1588.226 -153.028 C -1585.925 -151.536 -1582.797 -151.416 -1580.407 -152.765 C -1578.425 -153.971 -1577.112 -156.009 -1576.457 -158.198 C -1575.75 -156.809 -1575.183 -155.31 -1574.073 -154.17 C -1573.085 -153.122 -1571.766 -152.402 -1570.374 -152.032 C -1567.748 -151.647 -1564.802 -152.139 -1562.935 -154.187 C -1561.984 -155.414 -1561.329 -156.815 -1560.679 -158.205 C -1560.328 -157.178 -1560.031 -156.107 -1559.377 -155.22 C -1558.135 -153.524 -1556.221 -152.214 -1554.1 -151.968 C -1552.098 -151.869 -1549.806 -151.933 -1548.252 -153.4 C -1546.699 -154.54 -1545.958 -156.342 -1545.053 -157.97 C -1544.548 -156.614 -1543.907 -155.31 -1542.985 -154.176 C -1540.31 -151.322 -1535.405 -151.166 -1532.392 -153.575 C -1530.81 -154.64 -1530.212 -156.529 -1529.448 -158.179 C -1529.029 -157.022 -1528.533 -155.895 -1527.889 -154.839 C -1525.911 -152.169 -1522.2 -151.412 -1519.11 -152.222 C -1517.889 -152.62 -1516.847 -153.464 -1515.924 -154.322 C -1514.878 -155.323 -1514.613 -156.787 -1514.057 -158.057 C -1513.957 -158.051 -1513.753 -158.038 -1513.657 -158.034 C -1513.379 -157.272 -1513.197 -156.467 -1512.804 -155.752 C -1512.054 -154.414 -1510.882 -153.347 -1509.53 -152.626 C -1507.121 -151.636 -1504.136 -151.57 -1501.891 -153.026 C -1500.965 -153.644 -1500.056 -154.364 -1499.506 -155.352 C -1499.025 -156.274 -1498.617 -157.225 -1498.23 -158.183 C -1497.475 -156.174 -1496.577 -153.971 -1494.484 -153.024 C -1492.717 -151.826 -1490.507 -151.812 -1488.469 -152.066 C -1487.346 -152.25 -1486.42 -152.977 -1485.509 -153.603 C -1483.927 -154.645 -1483.328 -156.539 -1482.569 -158.179 C -1481.774 -155.778 -1480.254 -153.419 -1477.818 -152.449 C -1476.676 -151.899 -1475.374 -151.978 -1474.136 -151.963 C -1472.103 -151.884 -1470.228 -153.043 -1468.893 -154.489 C -1468.066 -155.656 -1467.512 -156.969 -1466.847 -158.224 C -1466.451 -157.01 -1466.184 -155.678 -1465.288 -154.711 C -1463.338 -152.547 -1460.195 -151.238 -1457.304 -152.062 C -1455.95 -152.306 -1454.845 -153.214 -1453.789 -154.029 C -1452.536 -155.109 -1451.971 -156.689 -1451.362 -158.171 C -1450.994 -157.255 -1450.605 -156.351 -1450.087 -155.502 C -1449.45 -153.975 -1447.915 -153.157 -1446.499 -152.47 C -1444.992 -151.662 -1443.236 -151.948 -1441.616 -152.115 C -1439.777 -152.414 -1438.199 -153.64 -1437.164 -155.147 C -1436.612 -156.056 -1436.161 -157.014 -1435.678 -157.953 C -1434.953 -155.799 -1433.572 -153.798 -1431.521 -152.724 C -1429.875 -151.765 -1427.888 -151.884 -1426.064 -152.089 C -1424.606 -152.335 -1423.419 -153.315 -1422.288 -154.191 C -1421.379 -155.301 -1420.815 -156.627 -1420.236 -157.918 C -1419.414 -156.633 -1418.673 -155.297 -1417.751 -154.069 C -1414.899 -151.14 -1409.521 -151.142 -1406.737 -154.166 C -1405.612 -155.254 -1405.067 -156.744 -1404.49 -158.158 C -1403.705 -156.389 -1402.997 -154.367 -1401.272 -153.285 C -1400.034 -152.276 -1398.402 -152.023 -1396.86 -151.837 C -1394.609 -151.711 -1392.453 -152.836 -1390.86 -154.354 C -1389.92 -155.455 -1389.415 -156.849 -1388.835 -158.153 C -1388.183 -155.919 -1386.702 -153.856 -1384.632 -152.735 C -1381.76 -151.106 -1377.886 -151.743 -1375.563 -154.048 C -1374.383 -155.168 -1373.708 -156.676 -1373.244 -158.205 C -1372.47 -156.026 -1371.264 -153.789 -1369.095 -152.735 C -1366.591 -151.356 -1363.219 -151.51 -1360.962 -153.319 C -1359.18 -154.367 -1358.302 -156.306 -1357.613 -158.164 C -1357.305 -157.358 -1356.963 -156.573 -1356.557 -155.801 C -1355.603 -153.73 -1353.428 -152.491 -1351.279 -151.991 C -1349.004 -151.79 -1346.406 -152.034 -1344.649 -153.665 C -1343.276 -154.843 -1342.63 -156.561 -1341.935 -158.175 C -1341.179 -156.362 -1340.413 -154.322 -1338.681 -153.219 C -1337.473 -152.524 -1336.145 -151.893 -1334.704 -151.963 C -1332.918 -151.841 -1331.024 -152.154 -1329.604 -153.321 C -1327.879 -154.358 -1327.175 -156.295 -1326.206 -157.94 C -1325.668 -156.27 -1324.844 -154.587 -1323.369 -153.544 C -1321.682 -151.978 -1319.174 -151.749 -1316.984 -152.066 C -1315.765 -152.171 -1314.692 -152.831 -1313.683 -153.475 C -1312.12 -154.591 -1311.425 -156.466 -1310.721 -158.175 C -1310.255 -157.082 -1309.815 -155.977 -1309.175 -154.965 C -1308.145 -153.623 -1306.693 -152.562 -1305.04 -152.134 C -1303.633 -151.91 -1302.169 -151.884 -1300.753 -152.113 C -1299.432 -152.56 -1298.241 -153.321 -1297.142 -154.164 C -1296.235 -155.387 -1295.619 -156.781 -1295.035 -158.173 C -1294.635 -156.877 -1294.156 -155.566 -1293.164 -154.587 C -1291.184 -152.177 -1287.663 -151.238 -1284.718 -152.245 C -1281.994 -153 -1280.187 -155.564 -1279.456 -158.183 C -1278.96 -156.8 -1278.44 -155.376 -1277.361 -154.326 C -1275.821 -152.549 -1273.388 -151.717 -1271.07 -151.966 C -1267.563 -151.914 -1264.666 -154.908 -1263.823 -158.151 C -1263.417 -157.185 -1262.992 -156.24 -1262.476 -155.316 C -1261.602 -153.708 -1259.849 -152.81 -1258.2 -152.156 C -1255.117 -151.217 -1251.358 -152.335 -1249.621 -155.139 C -1249.055 -156.111 -1248.606 -157.14 -1248.174 -158.175 C -1247.742 -157.106 -1247.316 -156.032 -1246.679 -155.057 C -1245.174 -153.028 -1242.621 -151.557 -1240.033 -151.974 C -1238.16 -151.982 -1236.221 -152.647 -1234.951 -154.07 C -1233.754 -155.188 -1233.146 -156.732 -1232.511 -158.203 C -1232.165 -157.181 -1231.872 -156.105 -1231.217 -155.22 C -1229.994 -153.535 -1228.096 -152.267 -1226.013 -151.966 C -1223.749 -151.491 -1221.394 -152.303 -1219.57 -153.637 C -1218.213 -154.85 -1217.623 -156.576 -1216.985 -158.216 C -1216.141 -156.235 -1215.29 -154.067 -1213.28 -152.975 C -1211.854 -152.013 -1210.051 -151.94 -1208.386 -151.966 C -1206.739 -151.873 -1205.321 -152.789 -1204.011 -153.657 C -1202.627 -154.844 -1201.919 -156.543 -1201.263 -158.194 C -1200.825 -156.975 -1200.311 -155.784 -1199.57 -154.702 C -1198.71 -153.479 -1197.329 -152.769 -1195.954 -152.269 C -1192.96 -151.196 -1189.285 -152.179 -1187.394 -154.777 C -1186.622 -155.733 -1186.385 -156.973 -1185.906 -158.074 C -1185.81 -158.057 -1185.613 -158.017 -1185.519 -157.997 C -1184.937 -156.755 -1184.61 -155.352 -1183.638 -154.326 C -1180.753 -151.102 -1175.117 -151.091 -1172.177 -154.258 C -1171.118 -155.338 -1170.665 -156.828 -1170.07 -158.184 C -1169.315 -156.174 -1168.422 -153.969 -1166.322 -153.024 C -1164.898 -152.085 -1163.19 -151.835 -1161.511 -151.963 C -1160.012 -151.88 -1158.616 -152.568 -1157.418 -153.4 C -1155.857 -154.602 -1155.145 -156.473 -1154.378 -158.213 C -1153.61 -156.022 -1152.402 -153.791 -1150.236 -152.72 C -1148.515 -151.735 -1146.445 -151.895 -1144.544 -152.098 C -1141.596 -152.823 -1139.645 -155.44 -1138.769 -158.216 C -1138.224 -156.642 -1137.629 -155.008 -1136.293 -153.911 C -1134.961 -152.917 -1133.41 -151.951 -1131.685 -151.938 C -1130.303 -152.004 -1128.77 -151.91 -1127.502 -152.603 C -1126.313 -153.398 -1125.099 -154.29 -1124.383 -155.564 C -1123.934 -156.409 -1123.553 -157.285 -1123.207 -158.171 C -1122.285 -156.248 -1121.447 -154.057 -1119.418 -153.028 C -1118.026 -152.177 -1116.362 -151.647 -1114.713 -151.878 C -1112.937 -152.105 -1111.066 -152.678 -1109.843 -154.07 C -1108.778 -155.186 -1108.22 -156.642 -1107.484 -157.976 C -1106.8 -156.466 -1106.178 -154.846 -1104.839 -153.77 C -1103.035 -152.015 -1100.278 -151.672 -1097.881 -152.072 C -1096.748 -152.214 -1095.745 -152.844 -1094.886 -153.567 C -1093.43 -154.529 -1092.788 -156.208 -1092.074 -157.717 C -1091.984 -157.752 -1091.8 -157.824 -1091.708 -157.861 C -1091.199 -156.841 -1090.836 -155.75 -1090.203 -154.781 C -1088.4 -152.444 -1085.154 -151.315 -1082.285 -152.077 C -1081.124 -152.306 -1080.089 -152.93 -1079.095 -153.552 C -1077.615 -154.7 -1076.878 -156.473 -1076.328 -158.201 C -1075.757 -156.858 -1075.192 -155.498 -1074.303 -154.322 C -1072.169 -152.335 -1068.942 -151.213 -1066.086 -152.214 C -1064.55 -152.827 -1063.009 -153.699 -1062.102 -155.132 C -1061.531 -156.122 -1061.072 -157.166 -1060.618 -158.215 C -1059.849 -156.026 -1058.642 -153.792 -1056.477 -152.72 C -1054.824 -151.754 -1052.839 -151.914 -1050.996 -152.07 C -1049.859 -152.214 -1048.881 -152.876 -1047.951 -153.511 C -1046.549 -154.679 -1045.82 -156.396 -1044.926 -157.94 C -1044.342 -156.071 -1043.337 -154.241 -1041.605 -153.199 C -1040.393 -152.509 -1039.046 -151.912 -1037.604 -151.966 C -1036.279 -151.966 -1034.765 -151.826 -1033.638 -152.724 C -1032.501 -153.467 -1031.213 -154.243 -1030.595 -155.521 C -1030.181 -156.396 -1029.796 -157.283 -1029.443 -158.184 C -1028.883 -156.915 -1028.29 -155.678 -1027.54 -154.495 C -1026.93 -153.714 -1026 -153.235 -1025.128 -152.737 C -1022.254 -151.08 -1018.416 -151.818 -1016.047 -154.035 C -1015.007 -155.252 -1014.364 -156.736 -1013.731 -158.19 C -1013.316 -157.117 -1012.918 -156.034 -1012.281 -155.055 C -1011.114 -153.475 -1009.346 -152.322 -1007.406 -151.95 C -1004.628 -151.412 -1001.644 -152.577 -999.873 -154.762 C -999.129 -155.722 -998.684 -156.866 -998.162 -157.953 C -997.637 -156.875 -997.121 -155.818 -996.446 -154.803 C -995.368 -153.49 -993.878 -152.477 -992.212 -152.077 C -989.783 -151.726 -987.112 -152.027 -985.141 -153.637 C -983.858 -154.781 -983.135 -156.362 -982.586 -157.957 C -981.797 -156.383 -981.117 -154.647 -979.669 -153.541 C -978.405 -152.335 -976.622 -152.043 -974.941 -151.839 C -972.735 -151.696 -970.686 -152.832 -969.003 -154.155 C -968.086 -155.367 -967.464 -156.766 -966.886 -158.162 C -966.254 -156.631 -965.616 -155.029 -964.331 -153.901 C -962.8 -152.4 -960.57 -151.76 -958.453 -151.961 C -956.157 -151.914 -954.034 -153.255 -952.702 -155.059 C -952.094 -156.049 -951.675 -157.131 -951.243 -158.201 C -950.704 -156.637 -950.101 -155.019 -948.791 -153.903 C -946.787 -151.899 -943.676 -151.578 -941.024 -152.216 C -938.256 -153.157 -936.276 -155.632 -935.572 -158.419 C -935.271 -156.652 -934.338 -155.074 -933.055 -153.824 C -930.415 -151.472 -926.063 -151.082 -923.226 -153.308 C -921.438 -154.375 -920.705 -156.37 -919.982 -158.198 C -919.405 -156.776 -918.911 -155.245 -917.75 -154.163 C -916.364 -152.761 -914.395 -151.75 -912.368 -151.938 C -910.76 -151.955 -908.992 -152.222 -907.689 -153.272 C -905.615 -154.79 -904.005 -157.369 -904.426 -160.027 C -904.371 -161.735 -905.038 -163.399 -906.124 -164.686 C -907.106 -165.856 -908.31 -166.916 -909.811 -167.305 C -913.125 -168.46 -917.147 -167.012 -918.909 -163.965 C -919.443 -163.129 -919.659 -162.144 -919.961 -161.213 C -920.476 -162.655 -921.158 -164.083 -922.144 -165.255 C -925.191 -168.558 -931.193 -168.46 -933.874 -164.756 C -934.708 -163.732 -935.11 -162.464 -935.532 -161.233 C -936.259 -162.843 -936.896 -164.587 -938.292 -165.749 C -939.921 -167.138 -942.153 -167.938 -944.29 -167.59 C -946.366 -167.412 -948.322 -166.294 -949.59 -164.656 C -950.307 -163.777 -950.608 -162.663 -951.074 -161.643 L -951.455 -161.709 C -952.105 -163.196 -952.65 -164.85 -954.006 -165.84 C -955.246 -167.091 -957.066 -167.418 -958.721 -167.669 C -960.53 -167.688 -962.369 -167.181 -963.848 -166.136 C -965.385 -164.96 -966.065 -163.108 -966.932 -161.459 C -967.299 -162.473 -967.628 -163.527 -968.281 -164.389 C -969.181 -165.518 -970.316 -166.475 -971.589 -167.119 C -974.253 -168.254 -977.456 -167.647 -979.707 -165.903 C -981.085 -164.752 -981.752 -163.065 -982.543 -161.51 C -983.227 -163.035 -983.774 -164.727 -985.166 -165.764 C -986.883 -167.158 -989.19 -168.009 -991.406 -167.602 C -993.382 -167.327 -995.267 -166.253 -996.45 -164.643 C -997.166 -163.737 -997.468 -162.603 -997.945 -161.568 C -998.039 -161.607 -998.225 -161.68 -998.317 -161.714 C -998.935 -163.565 -999.862 -165.524 -1001.691 -166.429 C -1004.487 -168.336 -1008.695 -168.137 -1011.105 -165.691 C -1012.452 -164.637 -1013.045 -162.988 -1013.74 -161.491 C -1014.266 -162.695 -1014.892 -163.878 -1015.653 -164.94 C -1017.712 -167.29 -1021.251 -168.355 -1024.208 -167.211 C -1025.299 -166.792 -1026.376 -166.247 -1027.148 -165.351 C -1028.267 -164.228 -1028.801 -162.701 -1029.419 -161.271 C -1029.964 -162.789 -1030.484 -164.429 -1031.782 -165.477 C -1033.506 -167.051 -1035.935 -168.047 -1038.286 -167.594 C -1039.751 -167.393 -1041.21 -166.845 -1042.276 -165.787 C -1043.577 -164.662 -1044.333 -163.067 -1044.926 -161.485 C -1045.276 -162.092 -1045.589 -162.721 -1045.911 -163.332 C -1046.818 -165.28 -1048.648 -166.741 -1050.69 -167.337 C -1053.352 -168.193 -1056.303 -167.292 -1058.397 -165.547 C -1059.406 -164.267 -1060.054 -162.759 -1060.655 -161.258 C -1061.352 -163.905 -1063.167 -166.409 -1065.876 -167.217 C -1068.421 -168.19 -1071.352 -167.536 -1073.461 -165.905 C -1074.852 -164.752 -1075.522 -163.052 -1076.319 -161.487 C -1076.837 -162.742 -1077.254 -164.098 -1078.257 -165.064 C -1079.986 -166.914 -1082.625 -168.056 -1085.165 -167.605 C -1086.974 -167.389 -1088.61 -166.398 -1089.904 -165.163 C -1090.832 -164.109 -1091.31 -162.753 -1091.888 -161.491 C -1092.459 -162.706 -1092.904 -164.008 -1093.829 -165.004 C -1094.642 -166.103 -1095.878 -166.781 -1097.116 -167.262 C -1099.879 -168.269 -1103.112 -167.472 -1105.275 -165.53 C -1106.214 -164.301 -1106.858 -162.89 -1107.503 -161.496 C -1108.327 -163.196 -1109.069 -165.073 -1110.728 -166.131 C -1113.677 -168.361 -1118.139 -168.101 -1120.793 -165.535 C -1122.02 -164.41 -1122.576 -162.808 -1123.087 -161.269 C -1123.418 -162.054 -1123.765 -162.845 -1124.133 -163.604 C -1124.939 -165.481 -1126.795 -166.694 -1128.666 -167.329 C -1130.408 -167.959 -1132.333 -167.722 -1134.037 -167.119 C -1136.442 -166.057 -1138.082 -163.707 -1138.767 -161.22 C -1139.156 -162.24 -1139.551 -163.272 -1140.193 -164.156 C -1142.002 -167.168 -1146.12 -168.411 -1149.359 -167.203 C -1150.448 -166.837 -1151.31 -166.027 -1152.16 -165.293 C -1153.337 -164.233 -1153.815 -162.672 -1154.406 -161.252 C -1154.842 -162.503 -1155.409 -163.726 -1156.163 -164.814 C -1158.579 -167.867 -1163.365 -168.567 -1166.572 -166.382 C -1168.475 -165.284 -1169.26 -163.168 -1170.068 -161.256 C -1170.83 -163.905 -1172.566 -166.527 -1175.373 -167.233 C -1178.007 -168.357 -1181.193 -167.446 -1183.21 -165.524 C -1184.379 -164.384 -1185.014 -162.864 -1185.812 -161.468 C -1186.332 -163.3 -1187.283 -165.094 -1188.85 -166.225 C -1190.078 -167.151 -1191.656 -167.448 -1193.131 -167.673 C -1195.282 -167.741 -1197.38 -166.924 -1199.011 -165.543 C -1200.078 -164.374 -1200.707 -162.918 -1201.271 -161.466 C -1202.061 -163.119 -1202.865 -164.861 -1204.28 -166.071 C -1205.559 -167.023 -1207.137 -167.508 -1208.696 -167.69 C -1210.919 -167.844 -1213.09 -166.875 -1214.695 -165.387 C -1215.743 -164.198 -1216.357 -162.721 -1216.962 -161.275 C -1217.531 -163.119 -1218.386 -165.011 -1220.022 -166.135 C -1221.797 -167.372 -1224.097 -168.017 -1226.231 -167.493 C -1227.563 -167.284 -1228.742 -166.593 -1229.823 -165.828 C -1231.314 -164.741 -1231.957 -162.905 -1232.565 -161.235 C -1233.003 -162.439 -1233.418 -163.691 -1234.282 -164.665 C -1236.048 -166.967 -1239.187 -168.171 -1242.022 -167.495 C -1243.6 -167.218 -1245.018 -166.347 -1246.097 -165.188 C -1247.165 -164.13 -1247.705 -162.68 -1248.187 -161.286 C -1249.046 -163.371 -1250.026 -165.714 -1252.207 -166.692 C -1255.078 -168.272 -1258.871 -167.87 -1261.302 -165.665 C -1262.585 -164.487 -1263.18 -162.817 -1263.838 -161.247 C -1264.442 -162.755 -1265.106 -164.267 -1266.097 -165.552 C -1268.325 -167.372 -1271.446 -168.218 -1274.22 -167.217 C -1275.417 -166.912 -1276.392 -166.093 -1277.247 -165.24 C -1278.287 -164.168 -1278.834 -162.759 -1279.563 -161.481 C -1280.053 -162.984 -1280.807 -164.431 -1281.864 -165.599 C -1283.23 -166.846 -1285.112 -167.434 -1286.899 -167.688 C -1289.253 -167.649 -1291.781 -166.839 -1293.267 -164.913 C -1294.08 -163.886 -1294.535 -162.64 -1295.138 -161.485 C -1295.568 -162.515 -1295.965 -163.568 -1296.598 -164.489 C -1297.961 -166.341 -1300.163 -167.511 -1302.446 -167.679 C -1304.841 -167.756 -1307.262 -166.751 -1308.84 -164.944 C -1309.627 -163.876 -1310.221 -162.684 -1310.764 -161.476 C -1311.346 -162.834 -1311.765 -164.35 -1312.898 -165.366 C -1314.632 -167.036 -1317.16 -168.026 -1319.567 -167.602 C -1321.928 -167.271 -1324.18 -165.802 -1325.223 -163.627 C -1325.565 -163.003 -1325.826 -162.33 -1326.14 -161.688 C -1326.237 -161.688 -1326.431 -161.68 -1326.525 -161.677 C -1326.925 -162.646 -1327.252 -163.677 -1327.859 -164.534 C -1328.747 -165.605 -1329.871 -166.49 -1331.093 -167.119 C -1333.667 -168.178 -1336.849 -167.771 -1338.998 -165.982 C -1340.593 -164.902 -1341.395 -163.031 -1341.935 -161.248 C -1342.615 -163.444 -1343.854 -165.629 -1345.992 -166.661 C -1348.761 -168.282 -1352.49 -167.882 -1354.906 -165.796 C -1356.259 -164.581 -1356.914 -162.855 -1357.617 -161.224 C -1357.979 -162.285 -1358.267 -163.394 -1358.907 -164.325 C -1360.745 -166.807 -1364.058 -168.284 -1367.12 -167.502 C -1369.082 -167.245 -1370.569 -165.793 -1371.787 -164.359 C -1372.311 -163.518 -1372.596 -162.558 -1372.995 -161.647 C -1373.09 -161.66 -1373.282 -161.686 -1373.382 -161.697 C -1373.97 -163.001 -1374.383 -164.47 -1375.546 -165.402 C -1378.176 -168.09 -1382.786 -168.421 -1385.752 -166.123 C -1387.437 -165.052 -1388.038 -163.007 -1388.812 -161.26 C -1389.242 -162.573 -1389.83 -163.85 -1390.679 -164.94 C -1392.073 -166.529 -1394.11 -167.511 -1396.208 -167.681 C -1398.088 -167.748 -1399.944 -167.117 -1401.466 -166.029 C -1402.957 -164.876 -1403.653 -163.091 -1404.496 -161.47 C -1405.069 -163.046 -1405.869 -164.57 -1407.088 -165.746 C -1409.072 -167.45 -1411.939 -168.12 -1414.452 -167.357 C -1415.919 -167.017 -1417.139 -166.048 -1418.202 -165.028 C -1419.029 -164.051 -1419.361 -162.776 -1419.891 -161.632 C -1419.992 -161.643 -1420.188 -161.66 -1420.287 -161.671 C -1420.815 -162.811 -1421.07 -164.096 -1421.953 -165.032 C -1424.914 -168.684 -1431.239 -168.522 -1434.01 -164.752 C -1434.778 -163.784 -1435.197 -162.62 -1435.65 -161.481 C -1436.437 -162.995 -1437.048 -164.681 -1438.43 -165.761 C -1440.993 -168.011 -1445.031 -168.306 -1447.855 -166.381 C -1449.754 -165.308 -1450.571 -163.174 -1451.347 -161.247 C -1451.747 -162.428 -1452.125 -163.649 -1452.882 -164.654 C -1454.27 -166.394 -1456.397 -167.478 -1458.596 -167.696 C -1460.265 -167.684 -1462.077 -167.504 -1463.406 -166.382 C -1465.228 -165.28 -1466.086 -163.264 -1467.084 -161.485 C -1467.799 -163.811 -1469.293 -166.052 -1471.641 -166.957 C -1474.592 -168.342 -1478.331 -167.632 -1480.555 -165.24 C -1481.56 -164.098 -1482.131 -162.68 -1482.55 -161.245 C -1482.997 -162.496 -1483.562 -163.722 -1484.323 -164.814 C -1486.741 -167.867 -1491.524 -168.562 -1494.732 -166.382 C -1496.571 -165.317 -1497.315 -163.253 -1498.256 -161.47 C -1499.027 -163.58 -1500.27 -165.719 -1502.342 -166.758 C -1503.498 -167.23 -1504.713 -167.759 -1505.97 -167.741 L -1505.97 -167.739 Z" style="paint-order: stroke; fill: rgb(212, 175, 55);" transform="matrix(1, 0, 0, 1, 1591.220947, 403.886078)"/>
</svg>