<?xml version="1.0" encoding="UTF-8" standalone="no"?>
<svg id="svg2" xmlns:rdf="http://www.w3.org/1999/02/22-rdf-syntax-ns#" xmlns="http://www.w3.org/2000/svg" height="16.205mm" width="431.99mm" version="1.1" xmlns:cc="http://creativecommons.org/ns#" xmlns:dc="http://purl.org/dc/elements/1.1/" viewBox="0 0 1530.6685 57.418176">
<g id="layer1" transform="translate(2042.5 13.49)">
<path id="path12" d="m-2013.8-13.489c-2.9843 0.01625-5.9747 0.47962-8.8117 1.3042-7.3752 2.5621-13.85 8.0032-17.089 15.176-1.7318 3.8732-3.0757 8.1125-2.6496 12.417 0.1202 8.0689 3.6821 16.034 9.6697 21.459 7.457 6.5174 18.46 8.8068 27.824 5.4032 6.3208-1.8902 11.374-6.5722 14.958-11.975 2.371 2.666 4.5287 5.6165 7.5826 7.5612 4.6764 3.4581 10.538 5.2005 16.346 5.0039 453.45-0.06625 906.88 0 1360.3-0.0275 7.1237-0.08125 14.27 0.27325 21.41-0.16388 5.8127-0.52438 11.14-3.3928 15.483-7.1678 1.5679-1.6552 3.0045-3.4691 4.4686-5.2282 3.8952 6.5065 10.538 11.194 17.935 12.822 7.0747 1.983 14.81 0.27875 20.962-3.5672 4.8622-2.6496 8.4947-7.1235 10.849-12.078 4.5726-9.2654 3.4034-21.017-2.7973-29.261-4.2338-6.0914-11.149-10.047-18.366-11.347-7.0364-0.803-14.51 0.49712-20.465 4.4524-3.2178 2.4038-5.8291 5.4911-8.5224 8.4303-2.595-3.409-5.5886-6.6653-9.3854-8.7085-3.2668-1.8739-6.949-3.0046-10.626-3.6602-7.3479-0.54625-14.712-0.18575-22.049-0.24588h-1338.5c-7.2167 0.03875-14.439-0.20212-21.656 0.10875-9.0905 0.235-17.842 5.2501-22.737 12.893-3.3106-4.7584-7.6319-8.9813-13.029-11.254-3.4756-1.6471-7.3017-2.3676-11.139-2.3474zm0.2979 10.03c6.0966 0 11.917 3.605 15.19 8.6846 3.398 5.9165 3.9165 13.723 0.1579 19.612-2.7534 4.354-7.2331 8.0041-12.51 8.5121-2.7479 0.2295-5.5503 0.26188-8.2654-0.24075-6.2498-1.6006-11.325-6.8291-12.838-13.079-0.4589-2.1579-0.9066-4.3539-0.77-6.5446 0.5627-4.5616 2.6764-8.91 6.0307-12.062 3.1194-2.6605 6.9497-4.5782 11.107-4.764 0.6341-0.08 1.2677-0.11875 1.8984-0.11875zm1472.9 0.02875c6.8855-0.11375 13.879 3.9574 16.829 10.262 1.5787 2.9609 2.01 6.3859 2.163 9.702-0.53 6.7414-4.8672 13.161-11.221 15.663-4.9277 1.7045-10.697 2.2459-15.412-0.32175-5.1954-2.2454-8.8227-7.326-9.959-12.784-1.5788-6.4682 0.7536-13.718 5.9326-17.936 2.7479-2.7042 6.5286-4.0318 10.293-4.507 0.4569-0.045 0.9153-0.07125 1.3743-0.07875zm-1417 1.4034c3.5735 0.0125 7.1494 0.0875 10.72 0.06375h1089.9c88.316-0.02125 176.63 0.04375 264.95-0.03875 3.917-0.06 8.1234 0.15312 11.652 2.0871 3.5837 2.0923 6.9442 5.1569 8.321 9.1941 1.5132 4.4469 1.6384 9.6804-0.8529 13.81-2.7751 5.1244-8.4236 8.9001-14.346 8.7308-6.3263 0.24588-12.642 0.06-18.941 0.0875h-1341.2c-6.3316-0.0275-12.668 0.1315-18.994-0.0325-4.6273 0.20212-9.2381-1.8635-12.319-5.2779-2.4639-3.0101-4.2667-6.6595-4.4524-10.598 0.087-3.3706 0.5352-6.8342 2.4472-9.6969 2.8244-4.1684 7.3916-7.2819 12.428-7.9539 3.5619-0.31688 7.1332-0.38225 10.707-0.37475zm179.51 1.1805c-0.5819 0.0125-1.1683 0.07625-1.7593 0.216-3.2669 0.32238-6.43 1.6499-8.7682 3.988-2.6223 2.2016-3.8626 5.4572-5.5015 8.3636-1.1145-4.2394-3.802-7.9759-7.4895-10.369-6.4792-3.6438-15.63-2.344-20.191 3.7474-1.6334 1.923-2.4203 4.3328-3.3162 6.6436-1.2019-2.229-2.1361-4.622-3.6056-6.6761-3.4472-4.1355-9.1124-6.5066-14.477-5.638-3.3215 0.4535-6.359 2.2288-8.8228 4.4413-2.0924 2.3929-3.3434 5.3651-4.5617 8.2715-1.4531-3.846-3.0868-7.9925-6.7853-10.216-5.8837-4.0044-14.488-3.5076-19.612 1.5349-2.4583 1.9666-3.2397 5.1245-4.4634 7.8779-0.1967 0.0125-0.5895 0.0275-0.7862 0.03875-1.0489-2.4091-2.0985-4.89-3.7593-6.944-1.9667-2.3109-4.7633-3.6765-7.5877-4.6053-6.0367-1.7591-13.16 0.68275-16.651 5.971-1.2674 1.9776-2.2021 4.1575-3.1199 6.3209-0.8086-2.3491-1.6989-4.7142-3.0756-6.7792-1.5843-1.9776-3.6384-3.5622-5.9547-4.5839-6.3098-3.0811-14.712-1.1086-18.848 4.6111-1.5788 1.994-2.333 4.4631-3.3 6.7905-1.4586-3.551-2.8456-7.55-6.2655-9.6696-4.7965-3.5456-11.664-4.2772-16.903-1.289-3.9771 2.4858-7.397 6.43-8.0853 11.199-0.1038 3.5456-0.033 7.3914 1.8079 10.56 1.628 2.7151 4.0153 4.9606 6.8015 6.4848 3.6002 1.6554 7.6816 1.6824 11.506 0.93388 2.2891-0.53538 4.1569-2.1199 5.9761-3.5075 2.6551-2.2125 3.8194-5.5336 5.125-8.6094 1.5789 4.0318 3.3649 8.4896 7.5988 10.38 4.6163 2.9884 10.883 3.2289 15.674 0.53012 3.9716-2.4201 6.6048-6.5069 7.9214-10.894 1.415 2.7861 2.5508 5.7906 4.7742 8.0741 1.9831 2.1034 4.6274 3.5456 7.4136 4.2885 5.2664 0.77038 11.166-0.21812 14.914-4.3209 1.9012-2.4584 3.2176-5.2668 4.5233-8.0529 0.6993 2.0541 1.2949 4.2065 2.606 5.982 2.4857 3.398 6.3259 6.0256 10.576 6.5172 4.0153 0.20212 8.6103 0.07125 11.724-2.8681 3.114-2.2835 4.5943-5.8994 6.408-9.1608 1.0162 2.7205 2.3003 5.3312 4.1468 7.6039 5.3648 5.7198 15.198 6.0371 21.234 1.2079 3.174-2.1361 4.3704-5.9224 5.9001-9.2275 0.8413 2.3164 1.8303 4.578 3.125 6.6922 3.9662 5.3484 11.402 6.867 17.597 5.2445 2.4474-0.79762 4.5338-2.4854 6.3858-4.2116 2.0978-2.005 2.6277-4.9386 3.7422-7.4844 0.2021 0.0125 0.6065 0.0375 0.8032 0.04875 0.5573 1.5241 0.9176 3.136 1.7098 4.5728 1.4969 2.6769 3.852 4.8186 6.5616 6.2662 4.8294 1.9831 10.811 2.1141 15.307-0.80325 1.8574-1.2401 3.6821-2.6821 4.7801-4.6598 0.967-1.852 1.7817-3.7535 2.5574-5.6765 1.5133 4.0262 3.3161 8.4411 7.5117 10.342 3.5401 2.3984 7.97 2.4252 12.056 1.9172 2.2508-0.3715 4.1088-1.825 5.9334-3.0815 3.1686-2.087 4.37-5.8836 5.8942-9.1669 1.5897 4.8075 4.6388 9.539 9.5228 11.478 2.289 1.109 4.8945 0.95012 7.3802 0.97738 4.0755 0.1585 7.8339-2.1635 10.505-5.0644 1.6608-2.3382 2.7703-4.966 4.1033-7.4845 0.7921 2.4311 1.3268 5.1029 3.1242 7.0422 3.9115 4.3378 10.205 6.9596 16.002 5.3044 2.7152-0.48625 4.9277-2.3051 7.0474-3.9386 2.5075-2.1634 3.6439-5.3319 4.8621-8.3038 0.7375 1.8355 1.5186 3.6496 2.5566 5.3486 1.2783 3.0648 4.3542 4.7035 7.195 6.0802 3.0156 1.617 6.5389 1.0489 9.784 0.71012 3.6876-0.59538 6.851-3.054 8.927-6.075 1.1035-1.8248 2.0049-3.7422 2.9773-5.627 1.4478 4.3212 4.2175 8.3315 8.3312 10.484 3.2997 1.923 7.2825 1.6824 10.937 1.2726 2.9228-0.49162 5.3043-2.4589 7.5715-4.2125 1.8192-2.2289 2.9502-4.8838 4.1084-7.4732 1.6498 2.5785 3.1305 5.2556 4.9825 7.714 5.7143 5.8728 16.493 5.8674 22.076-0.19125 2.2562-2.1798 3.3492-5.168 4.5019-8.0034 1.5733 3.5455 2.9934 7.599 6.4515 9.7678 2.4802 2.0214 5.753 2.53 8.8451 2.9015 4.507 0.25675 8.8334-2.0002 12.024-5.0431 1.8848-2.2071 2.8953-4.9982 4.0589-7.615 1.3057 4.4798 4.2777 8.6096 8.4242 10.86 5.7581 3.2615 13.521 1.9884 18.181-2.6334 2.3601-2.2452 3.7149-5.2664 4.6436-8.3311 1.5515 4.3704 3.9669 8.8502 8.321 10.964 5.0151 2.7644 11.773 2.458 16.296-1.1694 3.5728-2.1034 5.3314-5.9874 6.7136-9.7132 0.6173 1.6171 1.3009 3.1906 2.1203 4.7368 1.9121 4.1519 6.2713 6.6374 10.576 7.6371 4.5616 0.40425 9.7678-0.0875 13.291-3.3538 2.7534-2.3601 4.0487-5.8072 5.4418-9.0414 1.5132 3.6329 3.0478 7.7242 6.5224 9.9368 2.4201 1.3876 5.0804 2.655 7.9649 2.513 3.5838 0.24588 7.3808-0.38225 10.227-2.7204 3.4526-2.0815 4.8681-5.9602 6.8075-9.2599 1.0816 3.3488 2.7362 6.7248 5.6918 8.8116 3.3816 3.1414 8.4078 3.6 12.795 2.9664 2.442-0.21312 4.595-1.5345 6.6163-2.8238 3.1304-2.2399 4.5227-5.9985 5.9377-9.4238 0.9342 2.1906 1.8139 4.403 3.0977 6.4352 2.065 2.6879 4.977 4.8125 8.2876 5.6756 2.819 0.448 5.7525 0.49738 8.5933 0.03875 2.6441-0.89588 5.0315-2.4202 7.2385-4.1084 1.8138-2.4529 3.0537-5.2441 4.2228-8.0358 0.8031 2.5949 1.7651 5.2222 3.7482 7.189 3.9716 4.8294 11.029 6.709 16.93 4.6931 5.4631-1.5132 9.0856-6.6544 10.55-11.904 0.9888 2.7698 2.0321 5.627 4.1955 7.7302 3.0866 3.5619 7.9649 5.2286 12.608 4.7315 7.031 0.10375 12.839-5.895 14.527-12.396 0.814 1.9339 1.6662 3.8296 2.7042 5.6816 1.7482 3.2231 5.2607 5.0262 8.5659 6.332 6.1787 1.8848 13.718-0.3555 17.198-5.977 1.1309-1.9502 2.0328-4.0094 2.9014-6.0852 0.8632 2.1415 1.7153 4.2934 2.9936 6.2491 3.0156 4.0646 8.134 7.0151 13.324 6.1792 3.7531-0.01625 7.6377-1.3496 10.184-4.2014 2.3983-2.2399 3.6166-5.3371 4.8895-8.2816 0.6938 2.0486 1.2783 4.206 2.5949 5.976 2.4529 3.3762 6.2556 5.9224 10.429 6.5232 4.5398 0.95062 9.2599-0.67725 12.92-3.3486 2.7151-2.4311 3.895-5.8946 5.1788-9.178 1.6935 3.9716 3.3975 8.3146 7.4238 10.505 2.8572 1.9284 6.4742 2.0705 9.8122 2.0212 3.2996 0.18575 6.1399-1.6499 8.7622-3.3871 2.7807-2.3819 4.2014-5.7854 5.5126-9.096 0.8741 2.442 1.9117 4.8345 3.3922 6.9979 1.7263 2.4529 4.4908 3.8786 7.2496 4.8784 5.9985 2.147 13.363 0.18025 17.16-5.026 1.5461-1.9176 2.021-4.4032 2.9825-6.6104 0.1912 0.03875 0.5847 0.115 0.776 0.15375 1.1636 2.4911 1.8186 5.3039 3.7635 7.358 5.7854 6.4628 17.078 6.4846 22.972 0.13662 2.1251-2.1634 3.0327-5.1518 4.2236-7.8669 1.5133 4.0262 3.3048 8.4466 7.5168 10.342 2.8518 1.8794 6.2716 2.3814 9.6423 2.1246 3.0047 0.16938 5.802-1.2075 8.2057-2.8792 3.1249-2.4091 4.5508-6.1569 6.0914-9.6422 1.5405 4.3869 3.9607 8.8611 8.3038 11.008 3.4472 1.9721 7.5935 1.6505 11.407 1.2462 5.9056-1.4532 9.817-6.6978 11.571-12.265 1.0926 3.1522 2.2894 6.43 4.9663 8.6316 2.666 1.9886 5.7796 3.9224 9.2377 3.9496 2.7697-0.13112 5.84 0.06 8.3858-1.3332 2.3819-1.5898 4.8133-3.3814 6.2501-5.9326 0.8959-1.6935 1.6604-3.4476 2.3542-5.2231 1.852 3.8569 3.5291 8.2442 7.5937 10.304 2.7916 1.71 6.1297 2.7696 9.4348 2.3108 3.5565-0.45888 7.3093-1.6061 9.7567-4.3978 2.1361-2.2344 3.2565-5.157 4.7316-7.8284 1.3712 3.0265 2.6168 6.2714 5.2991 8.4292 3.6166 3.5182 9.145 4.2064 13.947 3.4034 2.2726-0.28412 4.2833-1.5459 6.0042-2.9936 2.9173-1.9284 4.2059-5.2935 5.6372-8.32 0.1803-0.07125 0.5466-0.21288 0.7324-0.28938 1.0216 2.0431 1.7483 4.2339 3.0158 6.1732 3.6165 4.6872 10.123 6.9489 15.875 5.4246 2.3218-0.46438 4.3978-1.7105 6.3918-2.956 2.9664-2.3055 4.4414-5.8561 5.545-9.3196 1.1418 2.6932 2.2779 5.4136 4.0589 7.7738 4.2775 3.9825 10.746 6.2331 16.471 4.2228 3.0757-1.2292 6.1625-2.9719 7.9872-5.8455 1.1417-1.9885 2.0599-4.0805 2.9722-6.1784 1.5406 4.3869 3.9602 8.8608 8.2979 11.013 3.3161 1.9339 7.2937 1.6122 10.987 1.3009 2.2781-0.28962 4.2395-1.6124 6.1025-2.8852 2.8134-2.3436 4.2721-5.785 6.064-8.8825 1.169 3.7476 3.1847 7.4188 6.6538 9.5056 2.4311 1.3822 5.1347 2.5788 8.0247 2.4695 2.6496 0 5.6874 0.28425 7.9437-1.5185 2.2835-1.4915 4.8677-3.0435 6.1024-5.6056 0.8303-1.7536 1.6008-3.5294 2.3056-5.3376 1.1254 2.5458 2.3157 5.0209 3.8181 7.3974 1.2238 1.5624 3.0866 2.5242 4.8348 3.5185 5.7581 3.3216 13.45 1.8405 18.203-2.6009 2.0815-2.4366 3.3711-5.4134 4.6385-8.3252 0.8359 2.147 1.6327 4.3212 2.9056 6.2825 2.3383 3.1686 5.8841 5.479 9.7739 6.222 5.5722 1.0816 11.549-1.2562 15.1-5.6321 1.4914-1.9285 2.3817-4.2231 3.4307-6.4029 1.0488 2.1634 2.0863 4.2828 3.4357 6.315 2.1634 2.6331 5.1465 4.6659 8.4899 5.469 4.8676 0.69925 10.221 0.09875 14.166-3.1301 2.5785-2.2945 4.026-5.4631 5.1241-8.659 1.5843 3.1576 2.9447 6.6319 5.8455 8.8552 2.5349 2.4148 6.1132 2.9996 9.4784 3.4094 4.4196 0.284 8.5336-1.994 11.904-4.6436 1.8356-2.4311 3.0814-5.2336 4.245-8.0308 1.262 3.0702 2.546 6.2824 5.119 8.5386 3.0702 3.0101 7.5384 4.2941 11.783 3.8899 4.6 0.0925 8.8556-2.5951 11.527-6.2116 1.2183-1.9776 2.0542-4.1521 2.9228-6.2936 1.0816 3.1358 2.2894 6.375 4.9116 8.6094 4.0208 4.0209 10.254 4.6659 15.57 3.382 5.5505-1.8848 9.5162-6.8449 10.931-12.434 0.6009 3.5456 2.4754 6.7084 5.043 9.2104 5.2883 4.7146 14.018 5.5014 19.7 1.038 3.5838-2.136 5.053-6.1354 6.5061-9.8011 1.1528 2.8518 2.1423 5.9171 4.4695 8.0914 2.7808 2.8025 6.7252 4.8294 10.79 4.4524 3.2231-0.0325 6.7625-0.563 9.3793-2.6718 4.1574-3.0429 7.3808-8.2105 6.5394-13.542 0.1088-3.4199-1.229-6.7582-3.4032-9.3367-1.9722-2.3436-4.3813-4.4685-7.3914-5.2496-6.6431-2.3164-14.706 0.58962-18.236 6.6974-1.0708 1.6771-1.5029 3.6492-2.1093 5.5176-1.0325-2.8954-2.398-5.753-4.3756-8.1075-6.1076-6.6158-18.137-6.4239-23.507 1.0004-1.6771 2.0541-2.4805 4.5998-3.3273 7.0636-1.4587-3.2286-2.7368-6.7197-5.5339-9.0525-3.2615-2.7806-7.7358-4.3869-12.019-3.6875-4.1628 0.355-8.0798 2.5945-10.626 5.8779-1.4367 1.7645-2.0381 3.9995-2.9722 6.0426l-0.7649-0.1315c-1.3001-2.9827-2.3925-6.2985-5.113-8.2816-2.4858-2.5075-6.1351-3.1636-9.4511-3.6663-3.6275-0.03875-7.3102 0.97812-10.277 3.0705-3.0756 2.36-4.4407 6.07-6.1833 9.3751-0.7322-2.0322-1.388-4.141-2.6992-5.8729-1.8028-2.2616-4.0812-4.1794-6.6325-5.4741-5.3375-2.2671-11.756-1.0541-16.269 2.4421-2.7643 2.3055-4.1024 5.6864-5.6868 8.8059-1.3711-3.0594-2.464-6.4512-5.2556-8.5326-3.4418-2.7916-8.0689-4.4969-12.51-3.6774-3.9607 0.54625-7.7357 2.6988-10.107 5.9274-1.4369 1.8192-2.0436 4.0871-2.9996 6.1631-0.1858-0.07625-0.5569-0.22438-0.7427-0.29538-1.2401-3.704-3.0973-7.6319-6.7631-9.4511-5.6051-3.8186-14.04-3.4198-18.87 1.4861-2.6988 2.1088-3.8899 5.4135-5.2829 8.4182-1.0544-2.4147-2.3048-4.7907-3.8344-6.9159-4.1246-4.7093-11.216-6.8451-17.144-4.5506-2.1852 0.84138-4.3426 1.9333-5.8941 3.7251-2.2452 2.2562-3.3159 5.3158-4.5505 8.1784-1.0926-3.0429-2.1362-6.326-4.7366-8.4292-3.4581-3.1578-8.3263-5.1519-13.036-4.245-2.9391 0.40425-5.8613 1.5076-7.9974 3.6218-2.6113 2.2562-4.1247 5.4525-5.3102 8.6266-0.7048-1.2182-1.3332-2.4801-1.9778-3.7039-1.8192-3.9006-5.4848-6.8346-9.5766-8.0255-5.3374-1.7209-11.254 0.0875-15.449 3.5894-2.0213 2.5621-3.3219 5.5831-4.5292 8.5932-1.3931-5.3046-5.0315-10.325-10.462-11.942-5.1025-1.9502-10.975-0.6395-15.204 2.6275-2.7862 2.3109-4.1299 5.7202-5.7251 8.8561-1.038-2.513-1.8798-5.2339-3.8848-7.1677-3.469-3.7094-8.7573-5.9982-13.849-5.0969-3.6275 0.43712-6.9048 2.4198-9.4998 4.8946-1.8574 2.1141-2.8133 4.8346-3.9769 7.364-1.1418-2.4365-2.0325-5.0474-3.8899-7.0414-1.628-2.2016-4.1033-3.5622-6.589-4.5293-5.5395-2.0159-12.018-0.421-16.351 3.4741-1.8848 2.4584-3.1739 5.2882-4.4687 8.0854-1.6498-3.409-3.1356-7.1726-6.4626-9.2924-5.911-4.4688-14.854-3.9494-20.175 1.1969-2.4584 2.2508-3.5734 5.4685-4.595 8.5496-0.661-1.5734-1.3597-3.1581-2.0973-4.6769-1.617-3.7641-5.3381-6.2004-9.0857-7.4733-3.4909-1.2566-7.353-0.78112-10.767 0.42075-4.8184 2.1306-8.1068 6.8398-9.4835 11.827-0.7758-2.0431-1.5681-4.108-2.8519-5.889-3.6275-6.0311-11.882-8.5225-18.372-6.1024-2.1852 0.732-3.9123 2.3543-5.6167 3.8293-2.3601 2.1196-3.3156 5.2552-4.5011 8.1015-0.8741-2.513-2.0104-4.9597-3.5237-7.1395-4.8402-6.1186-14.434-7.5231-20.864-3.1472-3.8078 2.2016-5.3868 6.4415-7.0039 10.277-1.5296-5.3101-5.0089-10.566-10.636-11.981-5.2774-2.2507-11.664-0.42588-15.706 3.4255-2.3436 2.2836-3.6165 5.3318-5.2172 8.1289-1.0434-3.6711-2.9449-7.2659-6.0862-9.533-2.4638-1.8575-5.6266-2.4523-8.5821-2.9056-4.3104-0.13662-8.5171 1.507-11.784 4.2714-2.1415 2.3436-3.398 5.2614-4.5343 8.1732-1.5789-3.3161-3.1958-6.807-6.0256-9.2326-2.5677-1.9065-5.7313-2.8794-8.8562-3.2454-4.4524-0.30587-8.8061 1.6335-12.024 4.6163-2.0978 2.382-3.333 5.3432-4.5404 8.2441-1.1417-3.6985-2.8566-7.4896-6.1399-9.7404-3.5565-2.4858-8.162-3.7758-12.44-2.7214-2.6714 0.41525-5.0368 1.8029-7.2001 3.3325-2.9883 2.1798-4.2781 5.8619-5.4964 9.2052-0.8795-2.4092-1.7099-4.922-3.4417-6.8724-3.5401-4.6108-9.8281-7.0252-15.515-5.6705-3.1631 0.55175-6.0039 2.2996-8.1673 4.6214-2.1415 2.1198-3.2225 5.0262-4.1895 7.8234-1.7208-4.1792-3.6821-8.877-8.058-10.838-5.7526-3.1685-13.352-2.3608-18.225 2.0589-2.5731 2.3601-3.7692 5.7095-5.0858 8.8561-1.2128-3.021-2.5406-6.053-4.5292-8.6316-4.4633-3.6493-10.718-5.3429-16.28-3.3325-2.3983 0.61188-4.3541 2.2509-6.064 3.9608-2.0869 2.147-3.185 4.9709-4.6436 7.5331-0.9834-3.0102-2.4912-5.9107-4.6163-8.2544-2.737-2.4966-6.5067-3.6763-10.09-4.1844-4.7146 0.07625-9.7839 1.6989-12.761 5.5613-1.6335 2.0595-2.546 4.556-3.7533 6.8724-0.8632-2.0651-1.6553-4.1791-2.9228-6.0256-2.737-3.7094-7.1508-6.0531-11.723-6.3918-4.8021-0.153-9.6538 1.8624-12.817 5.4844-1.5788 2.136-2.7694 4.529-3.8566 6.9491-1.1691-2.7205-2.0048-5.7579-4.2774-7.801-3.4745-3.3434-8.5444-5.3269-13.368-4.4746-4.731 0.661-9.2435 3.6064-11.336 7.9659-0.6829 1.2455-1.2075 2.6-1.8413 3.8839-0.1912 0-0.5787 0.01625-0.7699 0.0225-0.8031-1.9447-1.4535-4.0105-2.6718-5.7259-1.7809-2.147-4.0319-3.9165-6.4848-5.184-5.1571-2.1196-11.532-1.3059-15.843 2.2834-3.1959 2.1634-4.8068 5.9108-5.883 9.4835-1.3658-4.3977-3.8518-8.7791-8.1349-10.844-5.5504-3.2505-13.024-2.4472-17.869 1.732-2.7097 2.4365-4.0212 5.8948-5.4306 9.1617-0.7266-2.1251-1.3055-4.3434-2.5839-6.2117-3.6876-4.9769-10.326-7.9375-16.466-6.3695-3.928 0.51888-6.911 3.4251-9.3529 6.2986-1.049 1.6881-1.6224 3.6111-2.42 5.4357-0.1912-0.0275-0.5793-0.07625-0.7759-0.09875-1.1801-2.6167-2.0099-5.5562-4.3372-7.4246-5.2718-5.392-14.51-6.0531-20.459-1.4478-3.3761 2.147-4.5836 6.2501-6.1297 9.7465-0.8632-2.6277-2.0428-5.1899-3.7473-7.3751-2.7916-3.185-6.8732-5.1518-11.08-5.4904-3.7695-0.13662-7.4893 1.1254-10.538 3.3051-2.9883 2.3109-4.387 5.889-6.0751 9.1395-1.1473-3.1576-2.753-6.2112-5.195-8.5659-3.9771-3.4199-9.7245-4.7585-14.761-3.2344-2.9391 0.683-5.3811 2.6278-7.5117 4.671-1.6608 1.9558-2.3273 4.5121-3.3871 6.8066-0.2022-0.0225-0.5955-0.06-0.7922-0.0825-1.0598-2.2835-1.5735-4.8565-3.3435-6.7357-5.9329-7.3205-18.608-6.9929-24.169 0.5625-1.5351 1.9394-2.3761 4.2776-3.2829 6.5557-1.5788-3.032-2.8026-6.4082-5.5723-8.5771-5.1353-4.507-13.231-5.1018-18.891-1.2394-3.8078 2.147-5.4472 6.4244-6.9987 10.287-0.8031-2.3655-1.562-4.8129-3.0807-6.8287-2.7807-3.4855-7.0424-5.6603-11.451-6.0974-3.3434 0.02125-6.9758 0.38262-9.6363 2.6334-3.6548 2.2126-5.3757 6.25-7.3752 9.8174-1.4313-4.6655-4.4307-9.156-9.1344-10.97-5.9165-2.7751-13.406-1.3494-17.869 3.4418-2.0104 2.289-3.1578 5.1295-3.9991 8.0085-0.896-2.5075-2.0268-4.9654-3.551-7.1506-4.8458-6.1186-14.434-7.5176-20.864-3.1472-3.6876 2.1361-5.1788 6.2718-7.0636 9.8446-1.546-4.2284-4.0375-8.5169-8.1894-10.598-2.3171-0.94538-4.7496-2.0061-7.271-1.9693z"/>
</g>
</svg>
